ffmpeg version 6.1.1-3ubuntu5 Copyright (c) 2000-2023 the FFmpeg developers
  built with gcc 13 (Ubuntu 13.2.0-23ubuntu3)
  configuration: --prefix=/usr --extra-version=3ubuntu5 --toolchain=hardened --libdir=/usr/lib/x86_64-linux-gnu --incdir=/usr/include/x86_64-linux-gnu --arch=amd64 --enable-gpl --disable-stripping --disable-omx --enable-gnutls --enable-libaom --enable-libass --enable-libbs2b --enable-libcaca --enable-libcdio --enable-libcodec2 --enable-libdav1d --enable-libflite --enable-libfontconfig --enable-libfreetype --enable-libfribidi --enable-libglslang --enable-libgme --enable-libgsm --enable-libharfbuzz --enable-libmp3lame --enable-libmysofa --enable-libopenjpeg --enable-libopenmpt --enable-libopus --enable-librubberband --enable-libshine --enable-libsnappy --enable-libsoxr --enable-libspeex --enable-libtheora --enable-libtwolame --enable-libvidstab --enable-libvorbis --enable-libvpx --enable-libwebp --enable-libx265 --enable-libxml2 --enable-libxvid --enable-libzimg --enable-openal --enable-opencl --enable-opengl --disable-sndio --enable-libvpl --disable-libmfx --enable-libdc1394 --enable-libdrm --enable-libiec61883 --enable-chromaprint --enable-frei0r --enable-ladspa --enable-libbluray --enable-libjack --enable-libpulse --enable-librabbitmq --enable-librist --enable-libsrt --enable-libssh --enable-libsvtav1 --enable-libx264 --enable-libzmq --enable-libzvbi --enable-lv2 --enable-sdl2 --enable-libplacebo --enable-librav1e --enable-pocketsphinx --enable-librsvg --enable-libjxl --enable-shared
  libavutil      58. 29.100 / 58. 29.100
  libavcodec     60. 31.102 / 60. 31.102
  libavformat    60. 16.100 / 60. 16.100
  libavdevice    60.  3.100 / 60.  3.100
  libavfilter     9. 12.100 /  9. 12.100
  libswscale      7.  5.100 /  7.  5.100
  libswresample   4. 12.100 /  4. 12.100
  libpostproc    57.  3.100 / 57.  3.100
Input #0, mov,mp4,m4a,3gp,3g2,mj2, from 'downloads/Infinite pencil loop #pencil #macro #closeup #microscope #zoom #shorts #viral.mp4':
  Metadata:
    major_brand     : isom
    minor_version   : 512
    compatible_brands: isomiso2avc1mp41
    encoder         : Lavf60.16.100
  Duration: 00:00:11.75, start: 0.000000, bitrate: 4765 kb/s
  Stream #0:0[0x1](und): Audio: aac (LC) (mp4a / 0x6134706D), 44100 Hz, stereo, fltp, 128 kb/s (default)
    Metadata:
      handler_name    : SoundHandler
      vendor_id       : [0][0][0][0]
  Stream #0:1[0x2](und): Video: h264 (High) (avc1 / 0x31637661), yuv420p(tv, bt709, progressive), 1080x1920 [SAR 1:1 DAR 9:16], 4654 kb/s, 50 fps, 50 tbr, 90k tbn (default)
    Metadata:
      handler_name    : VideoHandler
      vendor_id       : [0][0][0][0]
Stream mapping:
  Stream #0:1 -> #0:0 (h264 (native) -> h264 (libx264))
  Stream #0:0 -> #0:1 (aac (native) -> aac (native))
Press [q] to stop, [?] for help
[libx264 @ 0x64d33164dbc0] using SAR=1/1
[libx264 @ 0x64d33164dbc0] using cpu capabilities: MMX2 SSE2Fast SSSE3 SSE4.2 AVX FMA3 BMI2 AVX2 AVX512
[libx264 @ 0x64d33164dbc0] profile High, level 4.2, 4:2:0, 8-bit
[libx264 @ 0x64d33164dbc0] 264 - core 164 r3108 31e19f9 - H.264/MPEG-4 AVC codec - Copyleft 2003-2023 - http://www.videolan.org/x264.html - options: cabac=1 ref=1 deblock=1:0:0 analyse=0x3:0x3 me=dia subme=1 psy=1 psy_rd=1.00:0.00 mixed_ref=0 me_range=16 chroma_me=1 trellis=0 8x8dct=1 cqm=0 deadzone=21,11 fast_pskip=1 chroma_qp_offset=0 threads=15 lookahead_threads=2 sliced_threads=0 nr=0 decimate=1 interlaced=0 bluray_compat=0 constrained_intra=0 bframes=3 b_pyramid=2 b_adapt=1 b_bias=0 direct=1 weightb=1 open_gop=0 weightp=1 keyint=60 keyint_min=6 scenecut=40 intra_refresh=0 rc_lookahead=0 rc=cbr mbtree=0 bitrate=2000 ratetol=1.0 qcomp=0.60 qpmin=0 qpmax=69 qpstep=4 vbv_maxrate=2000 vbv_bufsize=4000 nal_hrd=none filler=0 ip_ratio=1.40 pb_ratio=1.30 aq=1:1.00
Output #0, flv, to 'rtmps://edgetee-upload-del2-1.xx.fbcdn.net:443/rtmp/18130505548495934?s_bl=1&s_fbp=bom2-2&s_ow=10&s_prp=del2-1&s_sw=0&s_tids=1&s_vt=ig&a=Ab2FTtwgCRNEMWwpQ-LwRMHC':
  Metadata:
    major_brand     : isom
    minor_version   : 512
    compatible_brands: isomiso2avc1mp41
    encoder         : Lavf60.16.100
  Stream #0:0(und): Video: h264 ([7][0][0][0] / 0x0007), yuv420p(tv, bt709, progressive), 1080x1920 [SAR 1:1 DAR 9:16], q=2-31, 2000 kb/s, 50 fps, 1k tbn (default)
    Metadata:
      handler_name    : VideoHandler
      vendor_id       : [0][0][0][0]
      encoder         : Lavc60.31.102 libx264
    Side data:
      cpb: bitrate max/min/avg: 2000000/0/2000000 buffer size: 4000000 vbv_delay: N/A
  Stream #0:1(und): Audio: aac (LC) ([10][0][0][0] / 0x000A), 44100 Hz, stereo, fltp, 128 kb/s (default)
    Metadata:
      handler_name    : SoundHandler
      vendor_id       : [0][0][0][0]
      encoder         : Lavc60.31.102 aac
frame=    0 fps=0.0 q=0.0 size=       0kB time=00:00:00.16 bitrate=  24.2kbits/s speed=1.71x    frame=   23 fps=0.0 q=38.0 size=      86kB time=00:00:01.06 bitrate= 661.1kbits/s speed=1.77x    frame=   48 fps= 43 q=35.0 size=     193kB time=00:00:01.55 bitrate=1015.6kbits/s speed=1.41x    frame=   73 fps= 45 q=33.0 size=     286kB time=00:00:02.06 bitrate=1133.5kbits/s speed=1.28x    frame=   99 fps= 47 q=36.0 size=     410kB time=00:00:02.57 bitrate=1301.6kbits/s speed=1.21x    frame=  124 fps= 47 q=33.0 size=     563kB time=00:00:03.08 bitrate=1493.6kbits/s speed=1.17x    frame=  150 fps= 48 q=33.0 size=     691kB time=00:00:03.59 bitrate=1573.1kbits/s speed=1.15x    frame=  175 fps= 48 q=34.0 size=     821kB time=00:00:04.10 bitrate=1636.9kbits/s speed=1.12x    frame=  201 fps= 48 q=33.0 size=     970kB time=00:00:04.62 bitrate=1720.4kbits/s speed=1.11x    frame=  226 fps= 48 q=31.0 size=    1124kB time=00:00:05.13 bitrate=1794.1kbits/s speed= 1.1x    frame=  252 fps= 49 q=34.0 size=    1288kB time=00:00:05.64 bitrate=1869.9kbits/s speed=1.09x    frame=  277 fps= 49 q=34.0 size=    1433kB time=00:00:06.15 bitrate=1907.8kbits/s speed=1.08x    frame=  302 fps= 49 q=34.0 size=    1604kB time=00:00:06.64 bitrate=1978.4kbits/s speed=1.07x    frame=  327 fps= 49 q=33.0 size=    1737kB time=00:00:07.15 bitrate=1989.5kbits/s speed=1.07x    frame=  353 fps= 49 q=36.0 size=    1881kB time=00:00:07.66 bitrate=2011.1kbits/s speed=1.06x    frame=  378 fps= 49 q=38.0 size=    2036kB time=00:00:08.17 bitrate=2040.5kbits/s speed=1.06x    frame=  404 fps= 49 q=36.0 size=    2181kB time=00:00:08.68 bitrate=2057.4kbits/s speed=1.06x    frame=  429 fps= 49 q=36.0 size=    2371kB time=00:00:09.17 bitrate=2117.7kbits/s speed=1.05x    frame=  454 fps= 49 q=41.0 size=    2518kB time=00:00:09.68 bitrate=2130.3kbits/s speed=1.05x    frame=  479 fps= 49 q=39.0 size=    2659kB time=00:00:10.19 bitrate=2136.6kbits/s speed=1.05x    frame=  505 fps= 49 q=37.0 size=    2814kB time=00:00:10.70 bitrate=2153.9kbits/s speed=1.05x    frame=  530 fps= 49 q=40.0 size=    2922kB time=00:00:11.19 bitrate=2138.8kbits/s speed=1.04x    frame=  562 fps= 50 q=39.0 size=    3069kB time=00:00:11.70 bitrate=2148.2kbits/s speed=1.03x    frame=  581 fps= 49 q=36.0 size=    3148kB time=00:00:12.28 bitrate=2099.8kbits/s speed=1.04x    frame=  606 fps= 49 q=36.0 size=    3272kB time=00:00:12.79 bitrate=2095.0kbits/s speed=1.04x    frame=  632 fps= 49 q=36.0 size=    3386kB time=00:00:13.30 bitrate=2084.8kbits/s speed=1.04x    frame=  657 fps= 49 q=35.0 size=    3465kB time=00:00:13.81 bitrate=2054.6kbits/s speed=1.03x    frame=  683 fps= 49 q=38.0 size=    3573kB time=00:00:14.32 bitrate=2043.2kbits/s speed=1.03x    frame=  708 fps= 49 q=34.0 size=    3692kB time=00:00:14.83 bitrate=2038.4kbits/s speed=1.03x    frame=  734 fps= 49 q=35.0 size=    3816kB time=00:00:15.34 bitrate=2036.9kbits/s speed=1.03x    frame=  759 fps= 49 q=35.0 size=    3935kB time=00:00:15.85 bitrate=2032.6kbits/s speed=1.03x    frame=  785 fps= 49 q=34.0 size=    4071kB time=00:00:16.37 bitrate=2037.1kbits/s speed=1.03x    frame=  810 fps= 49 q=34.0 size=    4204kB time=00:00:16.88 bitrate=2040.1kbits/s speed=1.03x    frame=  835 fps= 49 q=35.0 size=    4373kB time=00:00:17.36 bitrate=2062.5kbits/s speed=1.03x    frame=  860 fps= 49 q=35.0 size=    4495kB time=00:00:17.87 bitrate=2059.5kbits/s speed=1.03x    frame=  886 fps= 49 q=35.0 size=    4632kB time=00:00:18.39 bitrate=2063.5kbits/s speed=1.03x    frame=  911 fps= 49 q=34.0 size=    4780kB time=00:00:18.90 bitrate=2071.6kbits/s speed=1.02x    frame=  937 fps= 49 q=37.0 size=    4916kB time=00:00:19.41 bitrate=2074.8kbits/s speed=1.02x    frame=  962 fps= 49 q=39.0 size=    5068kB time=00:00:19.92 bitrate=2083.7kbits/s speed=1.02x    frame=  988 fps= 49 q=37.0 size=    5210kB time=00:00:20.43 bitrate=2088.6kbits/s speed=1.02x    frame= 1014 fps= 49 q=36.0 size=    5376kB time=00:00:20.94 bitrate=2102.9kbits/s speed=1.02x    frame= 1039 fps= 49 q=38.0 size=    5568kB time=00:00:21.45 bitrate=2125.9kbits/s speed=1.02x    frame= 1065 fps= 50 q=39.0 size=    5718kB time=00:00:21.96 bitrate=2132.3kbits/s speed=1.02x    frame= 1090 fps= 50 q=37.0 size=    5881kB time=00:00:22.47 bitrate=2143.5kbits/s speed=1.02x    frame= 1115 fps= 50 q=36.0 size=    5991kB time=00:00:22.96 bitrate=2137.3kbits/s speed=1.02x    frame= 1146 fps= 50 q=39.0 size=    6136kB time=00:00:23.45 bitrate=2143.2kbits/s speed=1.02x    frame= 1164 fps= 49 q=36.0 size=    6208kB time=00:00:24.00 bitrate=2118.3kbits/s speed=1.02x    frame= 1189 fps= 49 q=36.0 size=    6328kB time=00:00:24.52 bitrate=2114.1kbits/s speed=1.02x    frame= 1214 fps= 49 q=35.0 size=    6450kB time=00:00:25.03 bitrate=2110.9kbits/s speed=1.02x    frame= 1239 fps= 49 q=35.0 size=    6526kB time=00:00:25.51 bitrate=2095.0kbits/s speed=1.02x    frame= 1264 fps= 49 q=36.0 size=    6634kB time=00:00:26.02 bitrate=2087.8kbits/s speed=1.02x    frame= 1290 fps= 49 q=37.0 size=    6748kB time=00:00:26.54 bitrate=2082.7kbits/s speed=1.02x    frame= 1315 fps= 49 q=36.0 size=    6872kB time=00:00:27.05 bitrate=2081.0kbits/s speed=1.02x    frame= 1340 fps= 49 q=36.0 size=    6986kB time=00:00:27.53 bitrate=2078.1kbits/s speed=1.02x    frame= 1365 fps= 49 q=35.0 size=    7113kB time=00:00:28.04 bitrate=2077.2kbits/s speed=1.02x    frame= 1391 fps= 49 q=35.0 size=    7253kB time=00:00:28.56 bitrate=2080.5kbits/s speed=1.02x    frame= 1416 fps= 50 q=37.0 size=    7393kB time=00:00:29.07 bitrate=2083.1kbits/s speed=1.02x    frame= 1441 fps= 50 q=36.0 size=    7544kB time=00:00:29.55 bitrate=2090.8kbits/s speed=1.02x    frame= 1466 fps= 49 q=34.0 size=    7683kB time=00:00:30.06 bitrate=2093.0kbits/s speed=1.02x    frame= 1492 fps= 50 q=37.0 size=    7829kB time=00:00:30.58 bitrate=2097.3kbits/s speed=1.02x    frame= 1517 fps= 50 q=35.0 size=    7959kB time=00:00:31.09 bitrate=2097.1kbits/s speed=1.01x    frame= 1543 fps= 50 q=38.0 size=    8098kB time=00:00:31.60 bitrate=2099.1kbits/s speed=1.01x    frame= 1569 fps= 50 q=39.0 size=    8263kB time=00:00:32.11 bitrate=2107.8kbits/s speed=1.01x    frame= 1594 fps= 50 q=36.0 size=    8414kB time=00:00:32.62 bitrate=2112.7kbits/s speed=1.01x    frame= 1619 fps= 50 q=38.0 size=    8607kB time=00:00:33.11 bitrate=2129.4kbits/s speed=1.01x    frame= 1644 fps= 50 q=38.0 size=    8761kB time=00:00:33.62 bitrate=2134.6kbits/s speed=1.01x    frame= 1670 fps= 50 q=38.0 size=    8944kB time=00:00:34.13 bitrate=2146.5kbits/s speed=1.01x    frame= 1695 fps= 50 q=39.0 size=    9049kB time=00:00:34.64 bitrate=2139.7kbits/s speed=1.01x    frame= 1719 fps= 50 q=37.0 size=    9154kB time=00:00:35.17 bitrate=2131.8kbits/s speed=1.01x    frame= 1743 fps= 50 q=38.0 size=    9266kB time=00:00:35.66 bitrate=2128.4kbits/s speed=1.01x    frame= 1768 fps= 49 q=36.0 size=    9382kB time=00:00:36.17 bitrate=2124.5kbits/s speed=1.01x    frame= 1794 fps= 50 q=35.0 size=    9504kB time=00:00:36.68 bitrate=2122.2kbits/s speed=1.01x    frame= 1819 fps= 50 q=37.0 size=    9582kB time=00:00:37.19 bitrate=2110.3kbits/s speed=1.01x    frame= 1844 fps= 50 q=35.0 size=    9691kB time=00:00:37.68 bitrate=2106.6kbits/s speed=1.01x    frame= 1869 fps= 50 q=37.0 size=    9798kB time=00:00:38.19 bitrate=2101.4kbits/s speed=1.01x    frame= 1895 fps= 50 q=34.0 size=    9926kB time=00:00:38.70 bitrate=2100.7kbits/s speed=1.01x    frame= 1920 fps= 50 q=35.0 size=   10034kB time=00:00:39.21 bitrate=2095.9kbits/s speed=1.01x    frame= 1945 fps= 50 q=35.0 size=   10161kB time=00:00:39.70 bitrate=2096.4kbits/s speed=1.01x    frame= 1970 fps= 50 q=37.0 size=   10302kB time=00:00:40.21 bitrate=2098.4kbits/s speed=1.01x    frame= 1996 fps= 50 q=35.0 size=   10439kB time=00:00:40.72 bitrate=2099.7kbits/s speed=1.01x    frame= 2021 fps= 50 q=35.0 size=   10591kB time=00:00:41.23 bitrate=2103.9kbits/s speed=1.01x    frame= 2046 fps= 50 q=37.0 size=   10728kB time=00:00:41.72 bitrate=2106.1kbits/s speed=1.01x    frame= 2071 fps= 50 q=35.0 size=   10863kB time=00:00:42.23 bitrate=2106.8kbits/s speed=1.01x    frame= 2097 fps= 50 q=35.0 size=   11001kB time=00:00:42.74 bitrate=2108.2kbits/s speed=1.01x    frame= 2122 fps= 50 q=36.0 size=   11137kB time=00:00:43.25 bitrate=2109.0kbits/s speed=1.01x    frame= 2147 fps= 50 q=39.0 size=   11290kB time=00:00:43.74 bitrate=2114.3kbits/s speed=1.01x    frame= 2172 fps= 50 q=39.0 size=   11448kB time=00:00:44.25 bitrate=2119.0kbits/s speed=1.01x    frame= 2198 fps= 50 q=39.0 size=   11640kB time=00:00:44.76 bitrate=2129.9kbits/s speed=1.01x    frame= 2223 fps= 50 q=40.0 size=   11802kB time=00:00:45.27 bitrate=2135.3kbits/s speed=1.01x    frame= 2248 fps= 50 q=39.0 size=   11960kB time=00:00:45.76 bitrate=2140.7kbits/s speed=1.01x    frame= 2273 fps= 50 q=36.0 size=   12106kB time=00:00:46.27 bitrate=2143.0kbits/s speed=1.01x    frame= 2299 fps= 50 q=34.0 size=   12206kB time=00:00:46.78 bitrate=2137.1kbits/s speed=1.01x    frame= 2321 fps= 50 q=37.0 size=   12310kB time=00:00:47.29 bitrate=2132.0kbits/s speed=1.01x    frame= 2346 fps= 50 q=38.0 size=   12425kB time=00:00:47.80 bitrate=2129.0kbits/s speed=1.01x    frame= 2372 fps= 50 q=35.0 size=   12550kB time=00:00:48.32 bitrate=2127.6kbits/s speed=1.01x    frame= 2397 fps= 50 q=35.0 size=   12638kB time=00:00:48.80 bitrate=2121.2kbits/s speed=1.01x    frame= 2422 fps= 50 q=35.0 size=   12724kB time=00:00:49.31 bitrate=2113.5kbits/s speed=1.01x    frame= 2447 fps= 50 q=35.0 size=   12846kB time=00:00:49.83 bitrate=2111.8kbits/s speed=1.01x    frame= 2473 fps= 50 q=35.0 size=   12964kB time=00:00:50.34 bitrate=2109.7kbits/s speed=1.01x    frame= 2498 fps= 50 q=38.0 size=   13085kB time=00:00:50.82 bitrate=2108.9kbits/s speed=1.01x    frame= 2523 fps= 50 q=33.0 size=   13201kB time=00:00:51.33 bitrate=2106.5kbits/s speed=1.01x    frame= 2548 fps= 50 q=35.0 size=   13345kB time=00:00:51.85 bitrate=2108.4kbits/s speed=1.01x    frame= 2574 fps= 50 q=35.0 size=   13482kB time=00:00:52.36 bitrate=2109.4kbits/s speed=1.01x    frame= 2600 fps= 50 q=38.0 size=   13646kB time=00:00:52.87 bitrate=2114.3kbits/s speed=1.01x    frame= 2625 fps= 50 q=38.0 size=   13773kB time=00:00:53.38 bitrate=2113.6kbits/s speed=1.01x    frame= 2651 fps= 50 q=34.0 size=   13912kB time=00:00:53.89 bitrate=2114.7kbits/s speed=1.01x    frame= 2676 fps= 50 q=35.0 size=   14049kB time=00:00:54.40 bitrate=2115.5kbits/s speed=1.01x    frame= 2701 fps= 50 q=38.0 size=   14189kB time=00:00:54.89 bitrate=2117.5kbits/s speed=1.01x    frame= 2726 fps= 50 q=39.0 size=   14342kB time=00:00:55.40 bitrate=2120.6kbits/s speed=1.01x    frame= 2752 fps= 50 q=37.0 size=   14490kB time=00:00:55.91 bitrate=2123.0kbits/s speed=1.01x    frame= 2777 fps= 50 q=37.0 size=   14700kB time=00:00:56.42 bitrate=2134.2kbits/s speed=1.01x    frame= 2803 fps= 50 q=38.0 size=   14849kB time=00:00:56.93 bitrate=2136.4kbits/s speed=1.01x    frame= 2828 fps= 50 q=39.0 size=   15008kB time=00:00:57.44 bitrate=2140.2kbits/s speed=1.01x    frame= 2854 fps= 50 q=37.0 size=   15165kB time=00:00:57.95 bitrate=2143.5kbits/s speed=1.01x    frame= 2879 fps= 50 q=35.0 size=   15264kB time=00:00:58.46 bitrate=2138.6kbits/s speed=1.01x    frame= 2900 fps= 50 q=39.0 size=   15371kB time=00:00:58.95 bitrate=2135.9kbits/s speed=1.01x    frame= 2926 fps= 50 q=38.0 size=   15479kB time=00:00:59.46 bitrate=2132.3kbits/s speed=1.01x    frame= 2951 fps= 50 q=36.0 size=   15599kB time=00:00:59.97 bitrate=2130.5kbits/s speed=1.01x    frame= 2976 fps= 50 q=35.0 size=   15705kB time=00:01:00.46 bitrate=2127.8kbits/s speed=1.01x    frame= 3001 fps= 50 q=36.0 size=   15785kB time=00:01:00.97 bitrate=2120.7kbits/s speed=1.01x    frame= 3027 fps= 50 q=35.0 size=   15899kB time=00:01:01.48 bitrate=2118.3kbits/s speed=1.01x    frame= 3052 fps= 50 q=38.0 size=   16020kB time=00:01:01.99 bitrate=2116.8kbits/s speed=1.01x    frame= 3077 fps= 50 q=35.0 size=   16143kB time=00:01:02.48 bitrate=2116.4kbits/s speed=1.01x    frame= 3102 fps= 50 q=35.0 size=   16258kB time=00:01:02.99 bitrate=2114.2kbits/s speed=1.01x    frame= 3128 fps= 50 q=35.0 size=   16399kB time=00:01:03.50 bitrate=2115.3kbits/s speed=1.01x    frame= 3153 fps= 50 q=35.0 size=   16534kB time=00:01:04.01 bitrate=2115.8kbits/s speed=1.01x    frame= 3178 fps= 50 q=38.0 size=   16676kB time=00:01:04.50 bitrate=2117.9kbits/s speed=1.01x    frame= 3203 fps= 50 q=35.0 size=   16822kB time=00:01:05.01 bitrate=2119.6kbits/s speed=1.01x    frame= 3229 fps= 50 q=35.0 size=   16959kB time=00:01:05.52 bitrate=2120.1kbits/s speed=1.01x    frame= 3254 fps= 50 q=38.0 size=   17098kB time=00:01:06.03 bitrate=2121.1kbits/s speed=1.01x    frame= 3279 fps= 50 q=36.0 size=   17243kB time=00:01:06.52 bitrate=2123.4kbits/s speed=1.01x    frame= 3304 fps= 50 q=39.0 size=   17393kB time=00:01:07.03 bitrate=2125.5kbits/s speed=1.01x    frame= 3330 fps= 50 q=37.0 size=   17533kB time=00:01:07.54 bitrate=2126.4kbits/s speed=1.01x    frame= 3355 fps= 50 q=37.0 size=   17702kB time=00:01:08.05 bitrate=2130.8kbits/s speed=1.01x    frame= 3381 fps= 50 q=40.0 size=   17885kB time=00:01:08.56 bitrate=2136.7kbits/s speed=1.01x    frame= 3406 fps= 50 q=35.0 size=   18047kB time=00:01:09.07 bitrate=2140.1kbits/s speed=1.01x    frame= 3432 fps= 50 q=39.0 size=   18212kB time=00:01:09.59 bitrate=2143.9kbits/s speed=1.01x    frame= 3458 fps= 50 q=36.0 size=   18317kB time=00:01:10.10 bitrate=2140.5kbits/s speed=1.01x    frame= 3482 fps= 50 q=39.0 size=   18441kB time=00:01:10.61 bitrate=2139.5kbits/s speed=1.01x    frame= 3505 fps= 50 q=37.0 size=   18529kB time=00:01:11.12 bitrate=2134.1kbits/s speed=1.01x    frame= 3530 fps= 50 q=35.0 size=   18648kB time=00:01:11.61 bitrate=2133.3kbits/s speed=1.01x    frame= 3555 fps= 50 q=37.0 size=   18762kB time=00:01:12.12 bitrate=2131.1kbits/s speed=1.01x    frame= 3580 fps= 50 q=33.0 size=   18836kB time=00:01:12.60 bitrate=2125.1kbits/s speed=1.01x    frame= 3605 fps= 50 q=36.0 size=   18952kB time=00:01:13.11 bitrate=2123.3kbits/s speed=1.01x    frame= 3631 fps= 50 q=33.0 size=   19069kB time=00:01:13.63 bitrate=2121.6kbits/s speed=1.01x    frame= 3656 fps= 50 q=35.0 size=   19194kB time=00:01:14.14 bitrate=2120.8kbits/s speed=1.01x    frame= 3682 fps= 50 q=35.0 size=   19307kB time=00:01:14.65 bitrate=2118.6kbits/s speed=1.01x    frame= 3707 fps= 50 q=35.0 size=   19455kB time=00:01:15.16 bitrate=2120.4kbits/s speed=1.01x    frame= 3732 fps= 50 q=34.0 size=   19583kB time=00:01:15.65 bitrate=2120.6kbits/s speed=1.01x    frame= 3757 fps= 50 q=35.0 size=   19722kB time=00:01:16.16 bitrate=2121.3kbits/s speed=1.01x    frame= 3783 fps= 50 q=38.0 size=   19867kB time=00:01:16.67 bitrate=2122.7kbits/s speed=1.01x    frame= 3808 fps= 50 q=34.0 size=   20010kB time=00:01:17.18 bitrate=2123.8kbits/s speed=1.01x    frame= 3834 fps= 50 q=34.0 size=   20152kB time=00:01:17.69 bitrate=2124.8kbits/s speed=1.01x    frame= 3859 fps= 50 q=38.0 size=   20285kB time=00:01:18.20 bitrate=2124.8kbits/s speed=1.01x    frame= 3884 fps= 50 q=39.0 size=   20427kB time=00:01:18.69 bitrate=2126.5kbits/s speed=1.01x    frame= 3909 fps= 50 q=36.0 size=   20582kB time=00:01:19.20 bitrate=2128.8kbits/s speed=1.01x    frame= 3935 fps= 50 q=37.0 size=   20749kB time=00:01:19.71 bitrate=2132.4kbits/s speed=1.01x    frame= 3960 fps= 50 q=38.0 size=   20937kB time=00:01:20.22 bitrate=2138.0kbits/s speed=1.01x    frame= 3985 fps= 50 q=38.0 size=   21092kB time=00:01:20.71 bitrate=2140.8kbits/s speed=1.01x    frame= 4010 fps= 50 q=38.0 size=   21264kB time=00:01:21.22 bitrate=2144.6kbits/s speed=1.01x    frame= 4036 fps= 50 q=36.0 size=   21364kB time=00:01:21.73 bitrate=2141.3kbits/s speed=1.01x    frame= 4066 fps= 50 q=39.0 size=   21512kB time=00:01:22.19 bitrate=2143.9kbits/s speed=1.01x    frame= 4083 fps= 50 q=36.0 size=   21581kB time=00:01:22.75 bitrate=2136.3kbits/s speed=1.01x    frame= 4108 fps= 50 q=35.0 size=   21699kB time=00:01:23.24 bitrate=2135.4kbits/s speed=1.01x    frame= 4133 fps= 50 q=35.0 size=   21821kB time=00:01:23.75 bitrate=2134.3kbits/s speed=1.01x    frame= 4159 fps= 50 q=35.0 size=   21894kB time=00:01:24.26 bitrate=2128.5kbits/s speed=1.01x    frame= 4184 fps= 50 q=36.0 size=   22005kB time=00:01:24.77 bitrate=2126.4kbits/s speed=1.01x    frame= 4210 fps= 50 q=37.0 size=   22118kB time=00:01:25.28 bitrate=2124.5kbits/s speed=1.01x    frame= 4235 fps= 50 q=36.0 size=   22242kB time=00:01:25.79 bitrate=2123.7kbits/s speed=1.01x    frame= 4260 fps= 50 q=38.0 size=   22351kB time=00:01:26.28 bitrate=2122.0kbits/s speed=1.01x    frame= 4285 fps= 50 q=35.0 size=   22483kB time=00:01:26.79 bitrate=2122.0kbits/s speed=1.01x    frame= 4311 fps= 50 q=35.0 size=   22623kB time=00:01:27.30 bitrate=2122.7kbits/s speed=1.01x    frame= 4336 fps= 50 q=39.0 size=   22768kB time=00:01:27.81 bitrate=2123.9kbits/s speed=1.01x    frame= 4362 fps= 50 q=36.0 size=   22913kB time=00:01:28.32 bitrate=2125.1kbits/s speed=1.01x    frame= 4387 fps= 50 q=34.0 size=   23051kB time=00:01:28.81 bitrate=2126.2kbits/s speed=1.01x    frame= 4412 fps= 50 q=37.0 size=   23198kB time=00:01:29.32 bitrate=2127.5kbits/s speed=1.01x    frame= 4437 fps= 50 q=35.0 size=   23328kB time=00:01:29.83 bitrate=2127.2kbits/s speed=1.01x    frame= 4463 fps= 50 q=38.0 size=   23466kB time=00:01:30.34 bitrate=2127.7kbits/s speed=1.01x    frame= 4488 fps= 50 q=39.0 size=   23616kB time=00:01:30.83 bitrate=2129.8kbits/s speed=   1x    frame= 4513 fps= 50 q=36.0 size=   23776kB time=00:01:31.34 bitrate=2132.3kbits/s speed=1.01x    frame= 4538 fps= 50 q=38.0 size=   23961kB time=00:01:31.85 bitrate=2136.9kbits/s speed=1.01x    frame= 4563 fps= 50 q=37.0 size=   24118kB time=00:01:32.34 bitrate=2139.5kbits/s speed=   1x    frame= 4588 fps= 50 q=37.0 size=   24277kB time=00:01:32.85 bitrate=2141.8kbits/s speed=   1x    frame= 4614 fps= 50 q=37.0 size=   24415kB time=00:01:33.36 bitrate=2142.1kbits/s speed=   1x    frame= 4639 fps= 50 q=37.0 size=   24520kB time=00:01:33.87 bitrate=2139.7kbits/s speed=1.01x    frame= 4661 fps= 50 q=36.0 size=   24624kB time=00:01:34.36 bitrate=2137.6kbits/s speed=   1x    frame= 4686 fps= 50 q=36.0 size=   24733kB time=00:01:34.87 bitrate=2135.6kbits/s speed=   1x    frame= 4711 fps= 50 q=37.0 size=   24863kB time=00:01:35.38 bitrate=2135.3kbits/s speed=   1x    frame= 4736 fps= 50 q=35.0 size=   24945kB time=00:01:35.87 bitrate=2131.4kbits/s speed=   1x    frame= 4761 fps= 50 q=35.0 size=   25035kB time=00:01:36.38 bitrate=2127.8kbits/s speed=   1x    frame= 4787 fps= 50 q=35.0 size=   25151kB time=00:01:36.89 bitrate=2126.4kbits/s speed=   1x    frame= 4812 fps= 50 q=34.0 size=   25275kB time=00:01:37.40 bitrate=2125.6kbits/s speed=   1x    frame= 4838 fps= 50 q=35.0 size=   25392kB time=00:01:37.91 bitrate=2124.4kbits/s speed=   1x    frame= 4864 fps= 50 q=35.0 size=   25519kB time=00:01:38.40 bitrate=2124.4kbits/s speed=   1x    frame= 4888 fps= 50 q=35.0 size=   25660kB time=00:01:38.91 bitrate=2125.0kbits/s speed=   1x    frame= 4913 fps= 50 q=36.0 size=   25797kB time=00:01:39.42 bitrate=2125.5kbits/s speed=   1x    frame= 4939 fps= 50 q=35.0 size=   25949kB time=00:01:39.93 bitrate=2127.1kbits/s speed=   1x    frame= 4964 fps= 50 q=35.0 size=   26081kB time=00:01:40.42 bitrate=2127.5kbits/s speed=   1x    frame= 4989 fps= 50 q=35.0 size=   26221kB time=00:01:40.93 bitrate=2128.0kbits/s speed=   1x    frame= 5015 fps= 50 q=35.0 size=   26359kB time=00:01:41.44 bitrate=2128.5kbits/s speed=   1x    frame= 5040 fps= 50 q=37.0 size=   26501kB time=00:01:41.95 bitrate=2129.3kbits/s speed=   1x    frame= 5064 fps= 50 q=37.0 size=   26650kB time=00:01:42.44 bitrate=2131.0kbits/s speed=   1x    frame= 5088 fps= 50 q=37.0 size=   26795kB time=00:01:42.91 bitrate=2132.9kbits/s speed=   1x    frame= 5114 fps= 50 q=37.0 size=   27004kB time=00:01:43.44 bitrate=2138.5kbits/s speed=   1x    frame= 5137 fps= 50 q=37.0 size=   27140kB time=00:01:43.90 bitrate=2139.6kbits/s speed=   1x    frame= 5166 fps= 50 q=39.0 size=   27323kB time=00:01:44.48 bitrate=2142.1kbits/s speed=   1x    frame= 5196 fps= 50 q=38.0 size=   27503kB time=00:01:45.07 bitrate=2144.3kbits/s speed=   1x    frame= 5221 fps= 50 q=39.0 size=   27603kB time=00:01:45.58 bitrate=2141.7kbits/s speed=   1x    frame= 5243 fps= 50 q=37.0 size=   27711kB time=00:01:46.09 bitrate=2139.8kbits/s speed=   1x    frame= 5269 fps= 50 q=38.0 size=   27823kB time=00:01:46.60 bitrate=2138.1kbits/s speed=   1x    frame= 5294 fps= 50 q=37.0 size=   27955kB time=00:01:47.11 bitrate=2138.0kbits/s speed=   1x    frame= 5320 fps= 50 q=37.0 size=   28033kB time=00:01:47.62 bitrate=2133.8kbits/s speed=   1x    frame= 5345 fps= 50 q=35.0 size=   28127kB time=00:01:48.13 bitrate=2130.8kbits/s speed=   1x    frame= 5371 fps= 50 q=35.0 size=   28245kB time=00:01:48.64 bitrate=2129.7kbits/s speed=   1x    frame= 5396 fps= 50 q=37.0 size=   28364kB time=00:01:49.15 bitrate=2128.7kbits/s speed=   1x    frame= 5421 fps= 50 q=38.0 size=   28487kB time=00:01:49.64 bitrate=2128.3kbits/s speed=   1x    frame= 5446 fps= 50 q=35.0 size=   28608kB time=00:01:50.15 bitrate=2127.5kbits/s speed=   1x    frame= 5472 fps= 50 q=35.0 size=   28755kB time=00:01:50.66 bitrate=2128.6kbits/s speed=   1x    frame= 5497 fps= 50 q=35.0 size=   28886kB time=00:01:51.17 bitrate=2128.4kbits/s speed=   1x    frame= 5523 fps= 50 q=35.0 size=   29046kB time=00:01:51.68 bitrate=2130.5kbits/s speed=   1x    frame= 5549 fps= 50 q=35.0 size=   29184kB time=00:01:52.19 bitrate=2130.8kbits/s speed=   1x    frame= 5574 fps= 50 q=35.0 size=   29317kB time=00:01:52.70 bitrate=2130.8kbits/s speed=   1x    frame= 5597 fps= 50 q=34.0 size=   29444kB time=00:01:53.17 bitrate=2131.3kbits/s speed=   1x    frame= 5624 fps= 50 q=37.0 size=   29600kB time=00:01:53.70 bitrate=2132.5kbits/s speed=   1x    frame= 5651 fps= 50 q=39.0 size=   29759kB time=00:01:54.24 bitrate=2134.0kbits/s speed=   1x    frame= 5676 fps= 50 q=37.0 size=   29909kB time=00:01:54.75 bitrate=2135.2kbits/s speed=   1x    frame= 5702 fps= 50 q=40.0 size=   30115kB time=00:01:55.26 bitrate=2140.3kbits/s speed=   1x    frame= 5728 fps= 50 q=38.0 size=   30276kB time=00:01:55.77 bitrate=2142.3kbits/s speed=   1x    frame= 5753 fps= 50 q=39.0 size=   30427kB time=00:01:56.28 bitrate=2143.5kbits/s speed=   1x    frame= 5779 fps= 50 q=37.0 size=   30576kB time=00:01:56.79 bitrate=2144.6kbits/s speed=   1x    frame= 5804 fps= 50 q=37.0 size=   30672kB time=00:01:57.30 bitrate=2142.0kbits/s speed=   1x    frame= 5826 fps= 50 q=37.0 size=   30777kB time=00:01:57.81 bitrate=2140.0kbits/s speed=   1x    frame= 5851 fps= 50 q=36.0 size=   30887kB time=00:01:58.30 bitrate=2138.7kbits/s speed=   1x    frame= 5876 fps= 50 q=36.0 size=   31015kB time=00:01:58.81 bitrate=2138.4kbits/s speed=   1x    frame= 5902 fps= 50 q=35.0 size=   31105kB time=00:01:59.32 bitrate=2135.4kbits/s speed=   1x    frame= 5927 fps= 50 q=36.0 size=   31191kB time=00:01:59.83 bitrate=2132.2kbits/s speed=   1x    frame= 5953 fps= 50 q=37.0 size=   31314kB time=00:02:00.34 bitrate=2131.5kbits/s speed=   1x    frame= 5978 fps= 50 q=35.0 size=   31435kB time=00:02:00.85 bitrate=2130.7kbits/s speed=   1x    frame= 6004 fps= 50 q=36.0 size=   31557kB time=00:02:01.37 bitrate=2130.0kbits/s speed=   1x    frame= 6029 fps= 50 q=39.0 size=   31673kB time=00:02:01.88 bitrate=2128.8kbits/s speed=   1x    frame= 6055 fps= 50 q=35.0 size=   31818kB time=00:02:02.39 bitrate=2129.7kbits/s speed=   1x    frame= 6080 fps= 50 q=35.0 size=   31955kB time=00:02:02.90 bitrate=2129.9kbits/s speed=   1x    frame= 6106 fps= 50 q=35.0 size=   32116kB time=00:02:03.41 bitrate=2131.8kbits/s speed=   1x    frame= 6131 fps= 50 q=37.0 size=   32246kB time=00:02:03.92 bitrate=2131.6kbits/s speed=   1x    frame= 6157 fps= 50 q=35.0 size=   32387kB time=00:02:04.43 bitrate=2132.1kbits/s speed=   1x    frame= 6183 fps= 50 q=35.0 size=   32537kB time=00:02:04.94 bitrate=2133.3kbits/s speed=   1x    frame= 6208 fps= 50 q=39.0 size=   32678kB time=00:02:05.45 bitrate=2133.8kbits/s speed=   1x    frame= 6234 fps= 50 q=37.0 size=   32827kB time=00:02:05.96 bitrate=2134.8kbits/s speed=   1x    frame= 6259 fps= 50 q=37.0 size=   32985kB time=00:02:06.47 bitrate=2136.4kbits/s speed=   1x    frame= 6285 fps= 50 q=38.0 size=   33179kB time=00:02:06.98 bitrate=2140.3kbits/s speed=   1x    frame= 6310 fps= 50 q=40.0 size=   33340kB time=00:02:07.50 bitrate=2142.1kbits/s speed=   1x    frame= 6336 fps= 50 q=39.0 size=   33494kB time=00:02:08.01 bitrate=2143.4kbits/s speed=   1x    frame= 6361 fps= 50 q=36.0 size=   33645kB time=00:02:08.52 bitrate=2144.5kbits/s speed=   1x    frame= 6387 fps= 50 q=35.0 size=   33741kB time=00:02:09.03 bitrate=2142.1kbits/s speed=   1x    frame= 6409 fps= 50 q=37.0 size=   33844kB time=00:02:09.54 bitrate=2140.2kbits/s speed=   1x    frame= 6434 fps= 50 q=38.0 size=   33960kB time=00:02:10.05 bitrate=2139.1kbits/s speed=   1x    frame= 6460 fps= 50 q=35.0 size=   34085kB time=00:02:10.56 bitrate=2138.5kbits/s speed=   1x    frame= 6486 fps= 50 q=35.0 size=   34177kB time=00:02:11.07 bitrate=2136.0kbits/s speed=   1x    frame= 6511 fps= 50 q=36.0 size=   34263kB time=00:02:11.58 bitrate=2133.1kbits/s speed=   1x    frame= 6536 fps= 50 q=37.0 size=   34380kB time=00:02:12.07 bitrate=2132.4kbits/s speed=   1x    frame= 6562 fps= 50 q=35.0 size=   34503kB time=00:02:12.58 bitrate=2131.8kbits/s speed=   1x    frame= 6587 fps= 50 q=38.0 size=   34620kB time=00:02:13.09 bitrate=2130.8kbits/s speed=   1x    frame= 6612 fps= 50 q=39.0 size=   34743kB time=00:02:13.60 bitrate=2130.2kbits/s speed=   1x    frame= 6638 fps= 50 q=35.0 size=   34889kB time=00:02:14.11 bitrate=2131.0kbits/s speed=   1x    frame= 6663 fps= 50 q=35.0 size=   35021kB time=00:02:14.62 bitrate=2131.0kbits/s speed=   1x    frame= 6687 fps= 50 q=38.0 size=   35176kB time=00:02:15.09 bitrate=2133.0kbits/s speed=   1x    frame= 6713 fps= 50 q=38.0 size=   35308kB time=00:02:15.62 bitrate=2132.6kbits/s speed=   1x    frame= 6739 fps= 50 q=34.0 size=   35448kB time=00:02:16.13 bitrate=2133.0kbits/s speed=   1x    frame= 6764 fps= 50 q=35.0 size=   35586kB time=00:02:16.64 bitrate=2133.3kbits/s speed=   1x    frame= 6790 fps= 50 q=36.0 size=   35723kB time=00:02:17.16 bitrate=2133.6kbits/s speed=   1x    frame= 6815 fps= 50 q=39.0 size=   35873kB time=00:02:17.67 bitrate=2134.6kbits/s speed=   1x    frame= 6841 fps= 50 q=39.0 size=   36036kB time=00:02:18.18 bitrate=2136.4kbits/s speed=   1x    frame= 6866 fps= 50 q=37.0 size=   36242kB time=00:02:18.69 bitrate=2140.6kbits/s speed=   1x    frame= 6892 fps= 50 q=38.0 size=   36389kB time=00:02:19.20 bitrate=2141.5kbits/s speed=   1x    frame= 6917 fps= 50 q=39.0 size=   36545kB time=00:02:19.71 bitrate=2142.8kbits/s speed=   1x    frame= 6943 fps= 50 q=38.0 size=   36702kB time=00:02:20.22 bitrate=2144.2kbits/s speed=   1x    frame= 6968 fps= 50 q=37.0 size=   36795kB time=00:02:20.71 bitrate=2142.1kbits/s speed=   1x    frame= 6989 fps= 50 q=36.0 size=   36902kB time=00:02:21.22 bitrate=2140.6kbits/s speed=   1x    frame= 7015 fps= 50 q=38.0 size=   37013kB time=00:02:21.73 bitrate=2139.3kbits/s speed=   1x    frame= 7041 fps= 50 q=37.0 size=   37134kB time=00:02:22.24 bitrate=2138.5kbits/s speed=   1x    frame= 7066 fps= 50 q=35.0 size=   37232kB time=00:02:22.75 bitrate=2136.5kbits/s speed=   1x    frame= 7092 fps= 50 q=35.0 size=   37316kB time=00:02:23.26 bitrate=2133.7kbits/s speed=   1x    frame= 7117 fps= 50 q=35.0 size=   37438kB time=00:02:23.77 bitrate=2133.1kbits/s speed=   1x    frame= 7143 fps= 50 q=35.0 size=   37556kB time=00:02:24.28 bitrate=2132.2kbits/s speed=   1x    frame= 7168 fps= 50 q=34.0 size=   37674kB time=00:02:24.79 bitrate=2131.4kbits/s speed=   1x    frame= 7194 fps= 50 q=34.0 size=   37798kB time=00:02:25.31 bitrate=2130.9kbits/s speed=   1x    frame= 7219 fps= 50 q=35.0 size=   37941kB time=00:02:25.82 bitrate=2131.5kbits/s speed=   1x    frame= 7245 fps= 50 q=35.0 size=   38078kB time=00:02:26.33 bitrate=2131.7kbits/s speed=   1x    frame= 7270 fps= 50 q=35.0 size=   38246kB time=00:02:26.84 bitrate=2133.6kbits/s speed=   1x    frame= 7296 fps= 50 q=35.0 size=   38368kB time=00:02:27.35 bitrate=2133.1kbits/s speed=   1x    frame= 7321 fps= 50 q=34.0 size=   38508kB time=00:02:27.86 bitrate=2133.4kbits/s speed=   1x    frame= 7347 fps= 50 q=38.0 size=   38652kB time=00:02:28.37 bitrate=2134.0kbits/s speed=   1x    frame= 7371 fps= 50 q=36.0 size=   38785kB time=00:02:28.86 bitrate=2134.4kbits/s speed=   1x    frame= 7397 fps= 50 q=37.0 size=   38942kB time=00:02:29.37 bitrate=2135.7kbits/s speed=   1x    frame= 7420 fps= 50 q=39.0 size=   39078kB time=00:02:29.83 bitrate=2136.5kbits/s speed=   1x    frame= 7448 fps= 50 q=37.0 size=   39277kB time=00:02:30.39 bitrate=2139.4kbits/s speed=   1x    frame= 7473 fps= 50 q=37.0 size=   39449kB time=00:02:30.88 bitrate=2141.8kbits/s speed=   1x    frame= 7499 fps= 50 q=39.0 size=   39608kB time=00:02:31.41 bitrate=2142.9kbits/s speed=   1x    frame= 7524 fps= 50 q=36.0 size=   39768kB time=00:02:31.90 bitrate=2144.6kbits/s speed=   1x    frame= 7549 fps= 50 q=36.0 size=   39872kB time=00:02:32.41 bitrate=2143.1kbits/s speed=   1x    frame= 7571 fps= 50 q=36.0 size=   39981kB time=00:02:32.92 bitrate=2141.7kbits/s speed=   1x    frame= 7597 fps= 50 q=37.0 size=   40088kB time=00:02:33.43 bitrate=2140.3kbits/s speed=   1x    frame= 7622 fps= 50 q=35.0 size=   40206kB time=00:02:33.94 bitrate=2139.5kbits/s speed=   1x    frame= 7648 fps= 50 q=35.0 size=   40312kB time=00:02:34.45 bitrate=2138.0kbits/s speed=   1x    frame= 7673 fps= 50 q=35.0 size=   40398kB time=00:02:34.96 bitrate=2135.5kbits/s speed=   1x    frame= 7698 fps= 50 q=35.0 size=   40506kB time=00:02:35.45 bitrate=2134.5kbits/s speed=   1x    frame= 7723 fps= 50 q=38.0 size=   40632kB time=00:02:35.96 bitrate=2134.2kbits/s speed=   1x    frame= 7748 fps= 50 q=36.0 size=   40745kB time=00:02:36.45 bitrate=2133.4kbits/s speed=   1x    frame= 7773 fps= 50 q=35.0 size=   40866kB time=00:02:36.96 bitrate=2132.7kbits/s speed=   1x    frame= 7799 fps= 50 q=36.0 size=   41012kB time=00:02:37.47 bitrate=2133.4kbits/s speed=   1x    frame= 7825 fps= 50 q=35.0 size=   41148kB time=00:02:37.98 bitrate=2133.6kbits/s speed=   1x    frame= 7850 fps= 50 q=36.0 size=   41282kB time=00:02:38.49 bitrate=2133.7kbits/s speed=   1x    frame= 7875 fps= 50 q=37.0 size=   41430kB time=00:02:39.01 bitrate=2134.4kbits/s speed=   1x    frame= 7900 fps= 50 q=36.0 size=   41565kB time=00:02:39.49 bitrate=2134.8kbits/s speed=   1x    frame= 7925 fps= 50 q=38.0 size=   41712kB time=00:02:40.00 bitrate=2135.5kbits/s speed=   1x    frame= 7951 fps= 50 q=38.0 size=   41855kB time=00:02:40.51 bitrate=2136.0kbits/s speed=   1x    frame= 7976 fps= 50 q=36.0 size=   42003kB time=00:02:41.03 bitrate=2136.8kbits/s speed=   1x    frame= 8002 fps= 50 q=37.0 size=   42146kB time=00:02:41.54 bitrate=2137.3kbits/s speed=   1x    frame= 8027 fps= 50 q=37.0 size=   42316kB time=00:02:42.05 bitrate=2139.1kbits/s speed=   1x    frame= 8053 fps= 50 q=38.0 size=   42513kB time=00:02:42.56 bitrate=2142.3kbits/s speed=   1x    frame= 8078 fps= 50 q=36.0 size=   42661kB time=00:02:43.07 bitrate=2143.1kbits/s speed=   1x    frame= 8104 fps= 50 q=40.0 size=   42823kB time=00:02:43.58 bitrate=2144.5kbits/s speed=   1x    frame= 8130 fps= 50 q=36.0 size=   42927kB time=00:02:44.09 bitrate=2143.0kbits/s speed=   1x    frame= 8154 fps= 50 q=39.0 size=   43051kB time=00:02:44.60 bitrate=2142.5kbits/s speed=   1x    frame= 8177 fps= 50 q=37.0 size=   43138kB time=00:02:45.11 bitrate=2140.2kbits/s speed=   1x    frame= 8202 fps= 50 q=35.0 size=   43258kB time=00:02:45.60 bitrate=2139.9kbits/s speed=   1x    frame= 8227 fps= 50 q=37.0 size=   43373kB time=00:02:46.11 bitrate=2138.9kbits/s speed=   1x    frame= 8253 fps= 50 q=33.0 size=   43452kB time=00:02:46.62 bitrate=2136.3kbits/s speed=   1x    frame= 8278 fps= 50 q=35.0 size=   43567kB time=00:02:47.13 bitrate=2135.4kbits/s speed=   1x    frame= 8304 fps= 50 q=35.0 size=   43684kB time=00:02:47.62 bitrate=2134.9kbits/s speed=   1x    frame= 8329 fps= 50 q=35.0 size=   43810kB time=00:02:48.15 bitrate=2134.3kbits/s speed=   1x    frame= 8354 fps= 50 q=35.0 size=   43918kB time=00:02:48.64 bitrate=2133.3kbits/s speed=   1x    frame= 8379 fps= 50 q=35.0 size=   44066kB time=00:02:49.15 bitrate=2134.1kbits/s speed=   1x    frame= 8404 fps= 50 q=35.0 size=   44194kB time=00:02:49.64 bitrate=2134.1kbits/s speed=   1x    frame= 8429 fps= 50 q=35.0 size=   44326kB time=00:02:50.15 bitrate=2134.1kbits/s speed=   1x    frame= 8455 fps= 50 q=38.0 size=   44476kB time=00:02:50.66 bitrate=2134.9kbits/s speed=   1x    frame= 8480 fps= 50 q=34.0 size=   44619kB time=00:02:51.17 bitrate=2135.3kbits/s speed=   1x    frame= 8506 fps= 50 q=34.0 size=   44767kB time=00:02:51.68 bitrate=2136.0kbits/s speed=   1x    frame= 8531 fps= 50 q=38.0 size=   44901kB time=00:02:52.19 bitrate=2136.1kbits/s speed=   1x    frame= 8556 fps= 50 q=39.0 size=   45036kB time=00:02:52.68 bitrate=2136.4kbits/s speed=   1x    frame= 8580 fps= 50 q=37.0 size=   45181kB time=00:02:53.17 bitrate=2137.3kbits/s speed=   1x    frame= 8606 fps= 50 q=37.0 size=   45368kB time=00:02:53.68 bitrate=2139.8kbits/s speed=   1x    frame= 8632 fps= 50 q=38.0 size=   45559kB time=00:02:54.21 bitrate=2142.3kbits/s speed=   1x    frame= 8659 fps= 50 q=39.0 size=   45725kB time=00:02:54.75 bitrate=2143.5kbits/s speed=   1x    frame= 8684 fps= 50 q=40.0 size=   45887kB time=00:02:55.24 bitrate=2145.1kbits/s speed=   1x    frame= 8708 fps= 50 q=36.0 size=   45979kB time=00:02:55.72 bitrate=2143.4kbits/s speed=   1x    frame= 8738 fps= 50 q=39.0 size=   46128kB time=00:02:56.21 bitrate=2144.4kbits/s speed=   1x    frame= 8757 fps= 50 q=36.0 size=   46201kB time=00:02:56.77 bitrate=2141.0kbits/s speed=   1x    frame= 8782 fps= 50 q=37.0 size=   46318kB time=00:02:57.28 bitrate=2140.3kbits/s speed=   1x    frame= 8808 fps= 50 q=36.0 size=   46440kB time=00:02:57.77 bitrate=2140.0kbits/s speed=   1x    frame= 8833 fps= 50 q=35.0 size=   46517kB time=00:02:58.28 bitrate=2137.4kbits/s speed=   1x    frame= 8858 fps= 50 q=36.0 size=   46628kB time=00:02:58.79 bitrate=2136.4kbits/s speed=   1x    frame= 8883 fps= 50 q=35.0 size=   46739kB time=00:02:59.30 bitrate=2135.4kbits/s speed=   1x    frame= 8908 fps= 50 q=37.0 size=   46861kB time=00:02:59.79 bitrate=2135.1kbits/s speed=   1x    frame= 8933 fps= 50 q=38.0 size=   46977kB time=00:03:00.30 bitrate=2134.4kbits/s speed=   1x    frame= 8959 fps= 50 q=35.0 size=   47109kB time=00:03:00.81 bitrate=2134.4kbits/s speed=   1x    frame= 8984 fps= 50 q=37.0 size=   47252kB time=00:03:01.32 bitrate=2134.8kbits/s speed=   1x    frame= 9010 fps= 50 q=36.0 size=   47394kB time=00:03:01.83 bitrate=2135.2kbits/s speed=   1x    frame= 9035 fps= 50 q=35.0 size=   47540kB time=00:03:02.34 bitrate=2135.8kbits/s speed=   1x    frame= 9061 fps= 50 q=34.0 size=   47677kB time=00:03:02.85 bitrate=2135.9kbits/s speed=   1x    frame= 9086 fps= 50 q=34.0 size=   47823kB time=00:03:03.36 bitrate=2136.5kbits/s speed=   1x    frame= 9111 fps= 50 q=37.0 size=   47958kB time=00:03:03.85 bitrate=2136.9kbits/s speed=   1x    frame= 9137 fps= 50 q=37.0 size=   48096kB time=00:03:04.36 bitrate=2137.1kbits/s speed=   1x    frame= 9161 fps= 50 q=39.0 size=   48249kB time=00:03:04.83 bitrate=2138.5kbits/s speed=   1x    frame= 9187 fps= 50 q=35.0 size=   48413kB time=00:03:05.36 bitrate=2139.6kbits/s speed=   1x    frame= 9210 fps= 50 q=38.0 size=   48590kB time=00:03:05.85 bitrate=2141.7kbits/s speed=   1x    frame= 9237 fps= 50 q=39.0 size=   48756kB time=00:03:06.38 bitrate=2142.9kbits/s speed=   1x    frame= 9266 fps= 50 q=38.0 size=   48954kB time=00:03:06.96 bitrate=2144.9kbits/s speed=   1x    frame= 9292 fps= 50 q=36.0 size=   49051kB time=00:03:07.47 bitrate=2143.3kbits/s speed=   1x    frame= 9322 fps= 50 q=39.0 size=   49196kB time=00:03:07.94 bitrate=2144.3kbits/s speed=   1x    frame= 9340 fps= 50 q=36.0 size=   49265kB time=00:03:08.49 bitrate=2141.0kbits/s speed=   1x    frame= 9365 fps= 50 q=36.0 size=   49385kB time=00:03:09.01 bitrate=2140.4kbits/s speed=   1x    frame= 9390 fps= 50 q=35.0 size=   49507kB time=00:03:09.52 bitrate=2139.9kbits/s speed=   1x    frame= 9416 fps= 50 q=35.0 size=   49582kB time=00:03:10.03 bitrate=2137.4kbits/s speed=   1x    frame= 9442 fps= 50 q=36.0 size=   49694kB time=00:03:10.54 bitrate=2136.5kbits/s speed=   1x    frame= 9467 fps= 50 q=35.0 size=   49808kB time=00:03:11.05 bitrate=2135.7kbits/s speed=   1x    frame= 9492 fps= 50 q=35.0 size=   49930kB time=00:03:11.54 bitrate=2135.4kbits/s speed=   1x    frame= 9517 fps= 50 q=36.0 size=   50042kB time=00:03:12.05 bitrate=2134.5kbits/s speed=   1x    frame= 9543 fps= 50 q=35.0 size=   50173kB time=00:03:12.53 bitrate=2134.7kbits/s speed=   1x    frame= 9567 fps= 50 q=35.0 size=   50314kB time=00:03:13.05 bitrate=2135.0kbits/s speed=   1x    frame= 9592 fps= 50 q=39.0 size=   50453kB time=00:03:13.56 bitrate=2135.3kbits/s speed=   1x    frame= 9618 fps= 50 q=36.0 size=   50599kB time=00:03:14.07 bitrate=2135.8kbits/s speed=   1x    frame= 9644 fps= 50 q=34.0 size=   50739kB time=00:03:14.56 bitrate=2136.4kbits/s speed=   1x    frame= 9668 fps= 50 q=34.0 size=   50887kB time=00:03:15.07 bitrate=2137.0kbits/s speed=   1x    frame= 9693 fps= 50 q=35.0 size=   51011kB time=00:03:15.58 bitrate=2136.6kbits/s speed=   1x    frame= 9717 fps= 50 q=36.0 size=   51140kB time=00:03:16.04 bitrate=2137.0kbits/s speed=   1x    frame= 9742 fps= 50 q=37.0 size=   51299kB time=00:03:16.55 bitrate=2138.0kbits/s speed=   1x    frame= 9770 fps= 50 q=36.0 size=   51468kB time=00:03:17.11 bitrate=2139.0kbits/s speed=   1x    frame= 9796 fps= 50 q=38.0 size=   51673kB time=00:03:17.62 bitrate=2142.0kbits/s speed=   1x    frame= 9822 fps= 50 q=41.0 size=   51826kB time=00:03:18.13 bitrate=2142.8kbits/s speed=   1x    frame= 9847 fps= 50 q=38.0 size=   52006kB time=00:03:18.64 bitrate=2144.7kbits/s speed=   1x    frame= 9872 fps= 50 q=36.0 size=   52115kB time=00:03:19.15 bitrate=2143.7kbits/s speed=   1x    frame= 9895 fps= 50 q=37.0 size=   52211kB time=00:03:19.66 bitrate=2142.1kbits/s speed=   1x    frame= 9920 fps= 50 q=36.0 size=   52328kB time=00:03:20.17 bitrate=2141.4kbits/s speed=   1x    frame= 9945 fps= 50 q=36.0 size=   52441kB time=00:03:20.69 bitrate=2140.6kbits/s speed=   1x    frame= 9970 fps= 50 q=35.0 size=   52564kB time=00:03:21.17 bitrate=2140.4kbits/s speed=   1x    frame= 9995 fps= 50 q=35.0 size=   52644kB time=00:03:21.68 bitrate=2138.2kbits/s speed=   1x    frame=10021 fps= 50 q=35.0 size=   52750kB time=00:03:22.19 bitrate=2137.1kbits/s speed=   1x    frame=10046 fps= 50 q=35.0 size=   52862kB time=00:03:22.71 bitrate=2136.3kbits/s speed=   1x    frame=10072 fps= 50 q=34.0 size=   52989kB time=00:03:23.22 bitrate=2136.0kbits/s speed=   1x    frame=10097 fps= 50 q=35.0 size=   53100kB time=00:03:23.73 bitrate=2135.1kbits/s speed=   1x    frame=10123 fps= 50 q=37.0 size=   53227kB time=00:03:24.24 bitrate=2134.9kbits/s speed=   1x    frame=10148 fps= 50 q=35.0 size=   53368kB time=00:03:24.75 bitrate=2135.2kbits/s speed=   1x    frame=10174 fps= 50 q=35.0 size=   53518kB time=00:03:25.26 bitrate=2135.9kbits/s speed=   1x    frame=10199 fps= 50 q=36.0 size=   53667kB time=00:03:25.75 bitrate=2136.7kbits/s speed=   1x    frame=10224 fps= 50 q=35.0 size=   53804kB time=00:03:26.26 bitrate=2136.9kbits/s speed=   1x    frame=10250 fps= 50 q=35.0 size=   53956kB time=00:03:26.77 bitrate=2137.6kbits/s speed=   1x    frame=10275 fps= 50 q=35.0 size=   54076kB time=00:03:27.28 bitrate=2137.1kbits/s speed=   1x    frame=10300 fps= 50 q=36.0 size=   54211kB time=00:03:27.77 bitrate=2137.4kbits/s speed=   1x    frame=10326 fps= 50 q=37.0 size=   54368kB time=00:03:28.30 bitrate=2138.1kbits/s speed=   1x    frame=10350 fps= 50 q=37.0 size=   54518kB time=00:03:28.79 bitrate=2139.0kbits/s speed=   1x    frame=10375 fps= 50 q=38.0 size=   54715kB time=00:03:29.28 bitrate=2141.7kbits/s speed=   1x    frame=10404 fps= 50 q=38.0 size=   54889kB time=00:03:29.83 bitrate=2142.8kbits/s speed=   1x    frame=10431 fps= 50 q=38.0 size=   55088kB time=00:03:30.39 bitrate=2144.9kbits/s speed=   1x    frame=10456 fps= 50 q=39.0 size=   55184kB time=00:03:30.90 bitrate=2143.4kbits/s speed=   1x    frame=10479 fps= 50 q=37.0 size=   55285kB time=00:03:31.41 bitrate=2142.2kbits/s speed=   1x    frame=10503 fps= 50 q=36.0 size=   55402kB time=00:03:31.90 bitrate=2141.8kbits/s speed=   1x    frame=10529 fps= 50 q=36.0 size=   55513kB time=00:03:32.43 bitrate=2140.7kbits/s speed=   1x    frame=10554 fps= 50 q=35.0 size=   55636kB time=00:03:32.92 bitrate=2140.5kbits/s speed=   1x    frame=10579 fps= 50 q=35.0 size=   55716kB time=00:03:33.43 bitrate=2138.4kbits/s speed=   1x    frame=10605 fps= 50 q=35.0 size=   55823kB time=00:03:33.94 bitrate=2137.4kbits/s speed=   1x    frame=10630 fps= 50 q=37.0 size=   55930kB time=00:03:34.45 bitrate=2136.4kbits/s speed=   1x    frame=10655 fps= 50 q=34.0 size=   56062kB time=00:03:34.94 bitrate=2136.6kbits/s speed=   1x    frame=10680 fps= 50 q=35.0 size=   56172kB time=00:03:35.45 bitrate=2135.7kbits/s speed=   1x    frame=10706 fps= 50 q=35.0 size=   56301kB time=00:03:35.96 bitrate=2135.6kbits/s speed=   1x    frame=10731 fps= 50 q=35.0 size=   56440kB time=00:03:36.47 bitrate=2135.8kbits/s speed=   1x    frame=10757 fps= 50 q=35.0 size=   56584kB time=00:03:36.99 bitrate=2136.2kbits/s speed=   1x    frame=10783 fps= 50 q=37.0 size=   56735kB time=00:03:37.50 bitrate=2136.9kbits/s speed=   1x    frame=10808 fps= 50 q=35.0 size=   56867kB time=00:03:38.01 bitrate=2136.8kbits/s speed=   1x    frame=10834 fps= 50 q=35.0 size=   57028kB time=00:03:38.49 bitrate=2138.1kbits/s speed=   1x    frame=10858 fps= 50 q=37.0 size=   57143kB time=00:03:39.01 bitrate=2137.4kbits/s speed=   1x    frame=10883 fps= 50 q=36.0 size=   57281kB time=00:03:39.49 bitrate=2137.8kbits/s speed=   1x    frame=10908 fps= 50 q=37.0 size=   57429kB time=00:03:40.00 bitrate=2138.4kbits/s speed=   1x    frame=10933 fps= 50 q=37.0 size=   57593kB time=00:03:40.51 bitrate=2139.5kbits/s speed=   1x    frame=10959 fps= 50 q=38.0 size=   57782kB time=00:03:41.03 bitrate=2141.5kbits/s speed=   1x    frame=10980 fps= 50 q=40.0 size=   57922kB time=00:03:41.47 bitrate=2142.5kbits/s speed=   1x    frame=11010 fps= 50 q=39.0 size=   58106kB time=00:03:42.05 bitrate=2143.6kbits/s speed=   1x    frame=11035 fps= 50 q=39.0 size=   58246kB time=00:03:42.54 bitrate=2144.1kbits/s speed=   1x    frame=11060 fps= 50 q=38.0 size=   58346kB time=00:03:43.05 bitrate=2142.9kbits/s speed=   1x    frame=11082 fps= 50 q=35.0 size=   58450kB time=00:03:43.56 bitrate=2141.8kbits/s speed=   1x    frame=11107 fps= 50 q=36.0 size=   58559kB time=00:03:44.07 bitrate=2140.9kbits/s speed=   1x    frame=11133 fps= 50 q=37.0 size=   58700kB time=00:03:44.58 bitrate=2141.2kbits/s speed=   1x    frame=11159 fps= 50 q=35.0 size=   58779kB time=00:03:45.09 bitrate=2139.2kbits/s speed=   1x    frame=11184 fps= 50 q=35.0 size=   58871kB time=00:03:45.60 bitrate=2137.7kbits/s speed=   1x    frame=11210 fps= 50 q=35.0 size=   58987kB time=00:03:46.11 bitrate=2137.0kbits/s speed=   1x    frame=11235 fps= 50 q=37.0 size=   59112kB time=00:03:46.62 bitrate=2136.7kbits/s speed=   1x    frame=11261 fps= 50 q=38.0 size=   59229kB time=00:03:47.13 bitrate=2136.2kbits/s speed=   1x    frame=11286 fps= 50 q=35.0 size=   59356kB time=00:03:47.64 bitrate=2135.9kbits/s speed=   1x    frame=11312 fps= 50 q=34.0 size=   59503kB time=00:03:48.15 bitrate=2136.5kbits/s speed=   1x    frame=11337 fps= 50 q=36.0 size=   59640kB time=00:03:48.67 bitrate=2136.6kbits/s speed=   1x    frame=11363 fps= 50 q=35.0 size=   59793kB time=00:03:49.18 bitrate=2137.3kbits/s speed=   1x    frame=11388 fps= 50 q=35.0 size=   59924kB time=00:03:49.66 bitrate=2137.4kbits/s speed=   1x    frame=11413 fps= 50 q=35.0 size=   60064kB time=00:03:50.17 bitrate=2137.7kbits/s speed=   1x    frame=11439 fps= 50 q=35.0 size=   60209kB time=00:03:50.69 bitrate=2138.1kbits/s speed=   1x    frame=11464 fps= 50 q=37.0 size=   60344kB time=00:03:51.20 bitrate=2138.1kbits/s speed=   1x    frame=11488 fps= 50 q=37.0 size=   60493kB time=00:03:51.68 bitrate=2138.9kbits/s speed=   1x    frame=11515 fps= 50 q=39.0 size=   60647kB time=00:03:52.19 bitrate=2139.6kbits/s speed=   1x    frame=11538 fps= 50 q=38.0 size=   60836kB time=00:03:52.68 bitrate=2141.8kbits/s speed=   1x    frame=11562 fps= 50 q=38.0 size=   60978kB time=00:03:53.12 bitrate=2142.7kbits/s speed=   1x    frame=11591 fps= 50 q=39.0 size=   61165kB time=00:03:53.73 bitrate=2143.8kbits/s speed=   1x    frame=11616 fps= 50 q=36.0 size=   61312kB time=00:03:54.24 bitrate=2144.2kbits/s speed=   1x    frame=11641 fps= 50 q=37.0 size=   61411kB time=00:03:54.73 bitrate=2143.2kbits/s speed=   1x    frame=11663 fps= 50 q=38.0 size=   61515kB time=00:03:55.24 bitrate=2142.2kbits/s speed=   1x    frame=11688 fps= 50 q=38.0 size=   61630kB time=00:03:55.75 bitrate=2141.5kbits/s speed=   1x    frame=11714 fps= 50 q=35.0 size=   61751kB time=00:03:56.26 bitrate=2141.1kbits/s speed=   1x    frame=11739 fps= 50 q=37.0 size=   61846kB time=00:03:56.77 bitrate=2139.8kbits/s speed=   1x    frame=11765 fps= 50 q=35.0 size=   61933kB time=00:03:57.26 bitrate=2138.4kbits/s speed=   1x    frame=11789 fps= 50 q=35.0 size=   62051kB time=00:03:57.77 bitrate=2137.8kbits/s speed=   1x    frame=11815 fps= 50 q=35.0 size=   62168kB time=00:03:58.28 bitrate=2137.3kbits/s speed=   1x    frame=11840 fps= 50 q=34.0 size=   62287kB time=00:03:58.79 bitrate=2136.8kbits/s speed=   1x    frame=11865 fps= 50 q=34.0 size=   62412kB time=00:03:59.28 bitrate=2136.7kbits/s speed=   1x    frame=11890 fps= 50 q=35.0 size=   62547kB time=00:03:59.79 bitrate=2136.8kbits/s speed=   1x    frame=11916 fps= 50 q=35.0 size=   62684kB time=00:04:00.30 bitrate=2136.9kbits/s speed=   1x    frame=11941 fps= 50 q=35.0 size=   62854kB time=00:04:00.81 bitrate=2138.2kbits/s speed=   1x    frame=11967 fps= 50 q=35.0 size=   62980kB time=00:04:01.32 bitrate=2137.9kbits/s speed=   1x    frame=11992 fps= 50 q=37.0 size=   63114kB time=00:04:01.83 bitrate=2137.9kbits/s speed=   1x    frame=12018 fps= 50 q=35.0 size=   63254kB time=00:04:02.34 bitrate=2138.2kbits/s speed=   1x    frame=12043 fps= 50 q=36.0 size=   63395kB time=00:04:02.85 bitrate=2138.4kbits/s speed=   1x    frame=12067 fps= 50 q=38.0 size=   63535kB time=00:04:03.29 bitrate=2139.3kbits/s speed=   1x    frame=12092 fps= 50 q=37.0 size=   63689kB time=00:04:03.83 bitrate=2139.7kbits/s speed=   1x    frame=12117 fps= 50 q=38.0 size=   63853kB time=00:04:04.32 bitrate=2141.0kbits/s speed=   1x    frame=12144 fps= 50 q=41.0 size=   64055kB time=00:04:04.87 bitrate=2142.9kbits/s speed=   1x    frame=12172 fps= 50 q=40.0 size=   64227kB time=00:04:05.43 bitrate=2143.7kbits/s speed=   1x    frame=12197 fps= 50 q=38.0 size=   64381kB time=00:04:05.92 bitrate=2144.6kbits/s speed=   1x    frame=12222 fps= 50 q=36.0 size=   64475kB time=00:04:06.43 bitrate=2143.3kbits/s speed=   1x    frame=12244 fps= 50 q=39.0 size=   64581kB time=00:04:06.94 bitrate=2142.4kbits/s speed=   1x    frame=12270 fps= 50 q=38.0 size=   64689kB time=00:04:07.45 bitrate=2141.5kbits/s speed=   1x    frame=12295 fps= 50 q=37.0 size=   64815kB time=00:04:07.96 bitrate=2141.3kbits/s speed=   1x    frame=12321 fps= 50 q=35.0 size=   64916kB time=00:04:08.47 bitrate=2140.2kbits/s speed=   1x    frame=12346 fps= 50 q=35.0 size=   65001kB time=00:04:08.98 bitrate=2138.6kbits/s speed=   1x    frame=12372 fps= 50 q=35.0 size=   65115kB time=00:04:09.49 bitrate=2138.0kbits/s speed=   1x    frame=12398 fps= 50 q=35.0 size=   65238kB time=00:04:10.00 bitrate=2137.6kbits/s speed=   1x    frame=12423 fps= 50 q=35.0 size=   65357kB time=00:04:10.52 bitrate=2137.2kbits/s speed=   1x    frame=12449 fps= 50 q=35.0 size=   65478kB time=00:04:11.03 bitrate=2136.8kbits/s speed=   1x    frame=12474 fps= 50 q=35.0 size=   65622kB time=00:04:11.54 bitrate=2137.1kbits/s speed=   1x    frame=12500 fps= 50 q=35.0 size=   65758kB time=00:04:12.05 bitrate=2137.2kbits/s speed=   1x    frame=12525 fps= 50 q=35.0 size=   65928kB time=00:04:12.56 bitrate=2138.4kbits/s speed=   1x    frame=12551 fps= 50 q=35.0 size=   66048kB time=00:04:13.07 bitrate=2138.0kbits/s speed=   1x    frame=12576 fps= 50 q=35.0 size=   66183kB time=00:04:13.58 bitrate=2138.0kbits/s speed=   1x    frame=12602 fps= 50 q=35.0 size=   66329kB time=00:04:14.07 bitrate=2138.6kbits/s speed=   1x    frame=12626 fps= 50 q=36.0 size=   66469kB time=00:04:14.58 bitrate=2138.9kbits/s speed=   1x    frame=12648 fps= 50 q=36.0 size=   66596kB time=00:04:15.02 bitrate=2139.2kbits/s speed=   1x    frame=12674 fps= 50 q=37.0 size=   66753kB time=00:04:15.53 bitrate=2140.0kbits/s speed=   1x    frame=12700 fps= 50 q=38.0 size=   66917kB time=00:04:16.04 bitrate=2140.9kbits/s speed=   1x    frame=12728 fps= 50 q=38.0 size=   67120kB time=00:04:16.62 bitrate=2142.6kbits/s speed=   1x    frame=12756 fps= 50 q=40.0 size=   67295kB time=00:04:17.18 bitrate=2143.5kbits/s speed=   1x    frame=12781 fps= 50 q=36.0 size=   67448kB time=00:04:17.67 bitrate=2144.3kbits/s speed=   1x    frame=12806 fps= 50 q=35.0 size=   67546kB time=00:04:18.18 bitrate=2143.2kbits/s speed=   1x    frame=12828 fps= 50 q=39.0 size=   67653kB time=00:04:18.69 bitrate=2142.4kbits/s speed=   1x    frame=12854 fps= 50 q=38.0 size=   67761kB time=00:04:19.20 bitrate=2141.5kbits/s speed=   1x    frame=12878 fps= 50 q=35.0 size=   67876kB time=00:04:19.69 bitrate=2141.1kbits/s speed=   1x    frame=12905 fps= 50 q=35.0 size=   67987kB time=00:04:20.22 bitrate=2140.2kbits/s speed=   1x    frame=12930 fps= 50 q=36.0 size=   68071kB time=00:04:20.73 bitrate=2138.7kbits/s speed=   1x    frame=12956 fps= 50 q=35.0 size=   68189kB time=00:04:21.24 bitrate=2138.2kbits/s speed=   1x    frame=12982 fps= 50 q=35.0 size=   68307kB time=00:04:21.75 bitrate=2137.7kbits/s speed=   1x    frame=13007 fps= 50 q=34.0 size=   68430kB time=00:04:22.26 bitrate=2137.4kbits/s speed=   1x    frame=13033 fps= 50 q=35.0 size=   68547kB time=00:04:22.78 bitrate=2136.9kbits/s speed=   1x    frame=13058 fps= 50 q=35.0 size=   68686kB time=00:04:23.29 bitrate=2137.1kbits/s speed=   1x    frame=13083 fps= 50 q=35.0 size=   68826kB time=00:04:23.77 bitrate=2137.5kbits/s speed=   1x    frame=13108 fps= 50 q=35.0 size=   68960kB time=00:04:24.28 bitrate=2137.5kbits/s speed=   1x    frame=13134 fps= 50 q=34.0 size=   69109kB time=00:04:24.80 bitrate=2138.0kbits/s speed=   1x    frame=13159 fps= 50 q=34.0 size=   69245kB time=00:04:25.31 bitrate=2138.1kbits/s speed=   1x    frame=13184 fps= 50 q=34.0 size=   69391kB time=00:04:25.79 bitrate=2138.7kbits/s speed=   1x    frame=13210 fps= 50 q=36.0 size=   69529kB time=00:04:26.30 bitrate=2138.8kbits/s speed=   1x    frame=13234 fps= 50 q=38.0 size=   69671kB time=00:04:26.79 bitrate=2139.3kbits/s speed=   1x    frame=13259 fps= 50 q=39.0 size=   69819kB time=00:04:27.28 bitrate=2139.9kbits/s speed=   1x    frame=13282 fps= 50 q=37.0 size=   69979kB time=00:04:27.79 bitrate=2140.7kbits/s speed=   1x    frame=13310 fps= 50 q=38.0 size=   70180kB time=00:04:28.32 bitrate=2142.6kbits/s speed=   1x    frame=13338 fps= 50 q=40.0 size=   70352kB time=00:04:28.88 bitrate=2143.4kbits/s speed=   1x    frame=13363 fps= 50 q=38.0 size=   70505kB time=00:04:29.39 bitrate=2143.9kbits/s speed=   1x    frame=13388 fps= 50 q=38.0 size=   70605kB time=00:04:29.88 bitrate=2143.1kbits/s speed=   1x    frame=13410 fps= 50 q=39.0 size=   70717kB time=00:04:30.39 bitrate=2142.5kbits/s speed=   1x    frame=13435 fps= 50 q=38.0 size=   70815kB time=00:04:30.90 bitrate=2141.4kbits/s speed=   1x    frame=13460 fps= 50 q=37.0 size=   70941kB time=00:04:31.39 bitrate=2141.3kbits/s speed=   1x    frame=13485 fps= 50 q=35.0 size=   71044kB time=00:04:31.90 bitrate=2140.4kbits/s speed=   1x    frame=13511 fps= 50 q=35.0 size=   71123kB time=00:04:32.41 bitrate=2138.8kbits/s speed=   1x    frame=13536 fps= 50 q=35.0 size=   71235kB time=00:04:32.92 bitrate=2138.1kbits/s speed=   1x    frame=13561 fps= 50 q=36.0 size=   71357kB time=00:04:33.41 bitrate=2138.0kbits/s speed=   1x    frame=13586 fps= 50 q=37.0 size=   71477kB time=00:04:33.92 bitrate=2137.6kbits/s speed=   1x    frame=13612 fps= 50 q=35.0 size=   71589kB time=00:04:34.43 bitrate=2136.9kbits/s speed=   1x    frame=13637 fps= 50 q=34.0 size=   71733kB time=00:04:34.92 bitrate=2137.5kbits/s speed=   1x    frame=13663 fps= 50 q=34.0 size=   71868kB time=00:04:35.45 bitrate=2137.3kbits/s speed=   1x    frame=13687 fps= 50 q=36.0 size=   72004kB time=00:04:35.94 bitrate=2137.6kbits/s speed=   1x    frame=13714 fps= 50 q=35.0 size=   72158kB time=00:04:36.45 bitrate=2138.2kbits/s speed=   1x    frame=13739 fps= 50 q=32.0 size=   72292kB time=00:04:36.96 bitrate=2138.2kbits/s speed=   1x    frame=13764 fps= 50 q=35.0 size=   72436kB time=00:04:37.47 bitrate=2138.5kbits/s speed=   1x    frame=13790 fps= 50 q=36.0 size=   72577kB time=00:04:37.96 bitrate=2138.9kbits/s speed=   1x    frame=13815 fps= 50 q=39.0 size=   72731kB time=00:04:38.50 bitrate=2139.4kbits/s speed=   1x    frame=13839 fps= 50 q=37.0 size=   72864kB time=00:04:38.96 bitrate=2139.7kbits/s speed=   1x    frame=13866 fps= 50 q=39.0 size=   73044kB time=00:04:39.49 bitrate=2140.9kbits/s speed=   1x    frame=13891 fps= 50 q=40.0 size=   73236kB time=00:04:40.00 bitrate=2142.6kbits/s speed=   1x    frame=13915 fps= 50 q=39.0 size=   73380kB time=00:04:40.49 bitrate=2143.1kbits/s speed=   1x    frame=13941 fps= 50 q=37.0 size=   73559kB time=00:04:41.03 bitrate=2144.2kbits/s speed=   1x    frame=13967 fps= 50 q=36.0 size=   73657kB time=00:04:41.54 bitrate=2143.2kbits/s speed=   1x    frame=13994 fps= 50 q=39.0 size=   73797kB time=00:04:42.00 bitrate=2143.7kbits/s speed=   1x    frame=14015 fps= 50 q=38.0 size=   73879kB time=00:04:42.56 bitrate=2141.9kbits/s speed=   1x    frame=14041 fps= 50 q=35.0 size=   74001kB time=00:04:43.07 bitrate=2141.6kbits/s speed=   1x    frame=14066 fps= 50 q=35.0 size=   74114kB time=00:04:43.58 bitrate=2140.9kbits/s speed=   1x    frame=14091 fps= 50 q=35.0 size=   74193kB time=00:04:44.09 bitrate=2139.4kbits/s speed=   1x    frame=14117 fps= 50 q=35.0 size=   74304kB time=00:04:44.60 bitrate=2138.7kbits/s speed=   1x    frame=14142 fps= 50 q=33.0 size=   74419kB time=00:04:45.09 bitrate=2138.4kbits/s speed=   1x    frame=14167 fps= 50 q=35.0 size=   74547kB time=00:04:45.60 bitrate=2138.2kbits/s speed=   1x    frame=14192 fps= 50 q=36.0 size=   74660kB time=00:04:46.11 bitrate=2137.7kbits/s speed=   1x    frame=14218 fps= 50 q=36.0 size=   74811kB time=00:04:46.62 bitrate=2138.2kbits/s speed=   1x    frame=14243 fps= 50 q=35.0 size=   74928kB time=00:04:47.11 bitrate=2137.9kbits/s speed=   1x    frame=14269 fps= 50 q=35.0 size=   75073kB time=00:04:47.62 bitrate=2138.2kbits/s speed=   1x    frame=14293 fps= 50 q=35.0 size=   75222kB time=00:04:48.13 bitrate=2138.6kbits/s speed=   1x    frame=14319 fps= 50 q=34.0 size=   75359kB time=00:04:48.64 bitrate=2138.7kbits/s speed=   1x    frame=14345 fps= 50 q=34.0 size=   75504kB time=00:04:49.15 bitrate=2139.1kbits/s speed=   1x    frame=14370 fps= 50 q=38.0 size=   75640kB time=00:04:49.66 bitrate=2139.1kbits/s speed=   1x    frame=14396 fps= 50 q=36.0 size=   75782kB time=00:04:50.17 bitrate=2139.4kbits/s speed=   1x    frame=14422 fps= 50 q=36.0 size=   75935kB time=00:04:50.71 bitrate=2139.8kbits/s speed=   1x    frame=14446 fps= 50 q=37.0 size=   76097kB time=00:04:51.17 bitrate=2140.9kbits/s speed=   1x    frame=14473 fps= 50 q=38.0 size=   76306kB time=00:04:51.73 bitrate=2142.7kbits/s speed=   1x    frame=14499 fps= 50 q=39.0 size=   76466kB time=00:04:52.24 bitrate=2143.4kbits/s speed=   1x    frame=14525 fps= 50 q=40.0 size=   76632kB time=00:04:52.75 bitrate=2144.3kbits/s speed=   1x    frame=14550 fps= 50 q=36.0 size=   76735kB time=00:04:53.26 bitrate=2143.5kbits/s speed=   1x    frame=14578 fps= 50 q=39.0 size=   76874kB time=00:04:53.68 bitrate=2144.3kbits/s speed=   1x    frame=14598 fps= 50 q=36.0 size=   76949kB time=00:04:54.28 bitrate=2142.0kbits/s speed=   1x    frame=14623 fps= 50 q=36.0 size=   77073kB time=00:04:54.80 bitrate=2141.7kbits/s speed=   1x    frame=14649 fps= 50 q=37.0 size=   77189kB time=00:04:55.31 bitrate=2141.2kbits/s speed=   1x    frame=14674 fps= 50 q=35.0 size=   77269kB time=00:04:55.82 bitrate=2139.8kbits/s speed=   1x    frame=14700 fps= 50 q=35.0 size=   77378kB time=00:04:56.33 bitrate=2139.1kbits/s speed=   1x    frame=14725 fps= 50 q=34.0 size=   77498kB time=00:04:56.84 bitrate=2138.7kbits/s speed=   1x    frame=14751 fps= 50 q=34.0 size=   77626kB time=00:04:57.35 bitrate=2138.6kbits/s speed=   1x    frame=14777 fps= 50 q=36.0 size=   77739kB time=00:04:57.86 bitrate=2138.0kbits/s speed=   1x    frame=14802 fps= 50 q=36.0 size=   77889kB time=00:04:58.37 bitrate=2138.5kbits/s speed=   1x    frame=14828 fps= 50 q=35.0 size=   78014kB time=00:04:58.88 bitrate=2138.2kbits/s speed=   1x    frame=14853 fps= 50 q=35.0 size=   78152kB time=00:04:59.39 bitrate=2138.4kbits/s speed=   1x    frame=14879 fps= 50 q=38.0 size=   78304kB time=00:04:59.90 bitrate=2138.9kbits/s speed=   1x    frame=14904 fps= 50 q=34.0 size=   78438kB time=00:05:00.41 bitrate=2138.9kbits/s speed=   1x    frame=14929 fps= 50 q=34.0 size=   78588kB time=00:05:00.90 bitrate=2139.5kbits/s speed=   1x    frame=14954 fps= 50 q=38.0 size=   78715kB time=00:05:01.41 bitrate=2139.3kbits/s speed=   1x    frame=14980 fps= 50 q=36.0 size=   78856kB time=00:05:01.92 bitrate=2139.5kbits/s speed=   1x    frame=15005 fps= 50 q=36.0 size=   79016kB time=00:05:02.43 bitrate=2140.3kbits/s speed=   1x    frame=15028 fps= 50 q=38.0 size=   79164kB time=00:05:02.90 bitrate=2141.0kbits/s speed=   1x    frame=15049 fps= 50 q=40.0 size=   79329kB time=00:05:03.32 bitrate=2142.5kbits/s speed=   1x    frame=15079 fps= 50 q=38.0 size=   79515kB time=00:05:03.92 bitrate=2143.2kbits/s speed=   1x    frame=15109 fps= 50 q=40.0 size=   79712kB time=00:05:04.50 bitrate=2144.4kbits/s speed=   1x    frame=15134 fps= 50 q=36.0 size=   79813kB time=00:05:05.01 bitrate=2143.6kbits/s speed=   1x    frame=15162 fps= 50 q=39.0 size=   79951kB time=00:05:05.50 bitrate=2143.9kbits/s speed=   1x    frame=15182 fps= 50 q=36.0 size=   80026kB time=00:05:06.03 bitrate=2142.1kbits/s speed=   1x    frame=15207 fps= 50 q=36.0 size=   80149kB time=00:05:06.54 bitrate=2141.8kbits/s speed=   1x    frame=15233 fps= 50 q=37.0 size=   80265kB time=00:05:07.06 bitrate=2141.4kbits/s speed=   1x    frame=15258 fps= 50 q=35.0 size=   80341kB time=00:05:07.57 bitrate=2139.8kbits/s speed=   1x    frame=15283 fps= 50 q=35.0 size=   80454kB time=00:05:08.05 bitrate=2139.4kbits/s speed=   1x    frame=15309 fps= 50 q=34.0 size=   80568kB time=00:05:08.56 bitrate=2138.9kbits/s speed=   1x    frame=15334 fps= 50 q=35.0 size=   80694kB time=00:05:09.08 bitrate=2138.7kbits/s speed=   1x    frame=15359 fps= 50 q=36.0 size=   80803kB time=00:05:09.59 bitrate=2138.1kbits/s speed=   1x    frame=15384 fps= 50 q=34.0 size=   80935kB time=00:05:10.07 bitrate=2138.2kbits/s speed=   1x    frame=15410 fps= 50 q=35.0 size=   81076kB time=00:05:10.59 bitrate=2138.4kbits/s speed=   1x    frame=15435 fps= 50 q=39.0 size=   81214kB time=00:05:11.10 bitrate=2138.6kbits/s speed=   1x    frame=15460 fps= 50 q=35.0 size=   81368kB time=00:05:11.61 bitrate=2139.1kbits/s speed=   1x    frame=15486 fps= 50 q=35.0 size=   81510kB time=00:05:12.12 bitrate=2139.3kbits/s speed=   1x    frame=15511 fps= 50 q=34.0 size=   81654kB time=00:05:12.63 bitrate=2139.6kbits/s speed=   1x    frame=15537 fps= 50 q=37.0 size=   81787kB time=00:05:13.14 bitrate=2139.6kbits/s speed=   1x    frame=15562 fps= 50 q=38.0 size=   81929kB time=00:05:13.65 bitrate=2139.8kbits/s speed=   1x    frame=15585 fps= 50 q=39.0 size=   82071kB time=00:05:14.07 bitrate=2140.7kbits/s speed=   1x    frame=15610 fps= 50 q=36.0 size=   82225kB time=00:05:14.58 bitrate=2141.2kbits/s speed=   1x    frame=15634 fps= 50 q=38.0 size=   82409kB time=00:05:15.09 bitrate=2142.5kbits/s speed=   1x    frame=15660 fps= 50 q=39.0 size=   82575kB time=00:05:15.60 bitrate=2143.4kbits/s speed=   1x    frame=15690 fps= 50 q=38.0 size=   82775kB time=00:05:16.20 bitrate=2144.4kbits/s speed=   1x    frame=15716 fps= 50 q=36.0 size=   82873kB time=00:05:16.72 bitrate=2143.5kbits/s speed=   1x    frame=15746 fps= 50 q=39.0 size=   83016kB time=00:05:17.18 bitrate=2144.1kbits/s speed=   1x    frame=15765 fps= 50 q=36.0 size=   83095kB time=00:05:17.76 bitrate=2142.2kbits/s speed=   1x    frame=15790 fps= 50 q=34.0 size=   83216kB time=00:05:18.27 bitrate=2141.9kbits/s speed=   1x    frame=15816 fps= 50 q=36.0 size=   83331kB time=00:05:18.78 bitrate=2141.4kbits/s speed=   1x    frame=15841 fps= 50 q=35.0 size=   83408kB time=00:05:19.29 bitrate=2139.9kbits/s speed=   1x    frame=15867 fps= 50 q=38.0 size=   83519kB time=00:05:19.80 bitrate=2139.4kbits/s speed=   1x    frame=15892 fps= 50 q=34.0 size=   83637kB time=00:05:20.31 bitrate=2139.0kbits/s speed=   1x    frame=15918 fps= 50 q=35.0 size=   83764kB time=00:05:20.83 bitrate=2138.8kbits/s speed=   1x    frame=15943 fps= 50 q=35.0 size=   83877kB time=00:05:21.34 bitrate=2138.3kbits/s speed=   1x    frame=15969 fps= 50 q=34.0 size=   84005kB time=00:05:21.85 bitrate=2138.1kbits/s speed=   1x    frame=15994 fps= 50 q=35.0 size=   84146kB time=00:05:22.36 bitrate=2138.4kbits/s speed=   1x    frame=16019 fps= 50 q=39.0 size=   84284kB time=00:05:22.85 bitrate=2138.6kbits/s speed=   1x    frame=16045 fps= 50 q=35.0 size=   84438kB time=00:05:23.36 bitrate=2139.1kbits/s speed=   1x    frame=16070 fps= 50 q=35.0 size=   84573kB time=00:05:23.87 bitrate=2139.2kbits/s speed=   1x    frame=16095 fps= 50 q=35.0 size=   84720kB time=00:05:24.38 bitrate=2139.5kbits/s speed=   1x    frame=16118 fps= 50 q=37.0 size=   84835kB time=00:05:24.82 bitrate=2139.5kbits/s speed=   1x    frame=16141 fps= 50 q=36.0 size=   84966kB time=00:05:25.28 bitrate=2139.8kbits/s speed=   1x    frame=16167 fps= 50 q=39.0 size=   85122kB time=00:05:25.82 bitrate=2140.2kbits/s speed=   1x    frame=16192 fps= 50 q=36.0 size=   85295kB time=00:05:26.33 bitrate=2141.2kbits/s speed=   1x    frame=16220 fps= 50 q=38.0 size=   85501kB time=00:05:26.86 bitrate=2142.9kbits/s speed=   1x    frame=16246 fps= 50 q=41.0 size=   85669kB time=00:05:27.40 bitrate=2143.5kbits/s speed=   1x    frame=16273 fps= 50 q=38.0 size=   85848kB time=00:05:27.93 bitrate=2144.5kbits/s speed=   1x    frame=16299 fps= 50 q=39.0 size=   85946kB time=00:05:28.44 bitrate=2143.6kbits/s speed=   1x    frame=16330 fps= 50 q=39.0 size=   86096kB time=00:05:28.93 bitrate=2144.2kbits/s speed=   1x    frame=16349 fps= 50 q=36.0 size=   86173kB time=00:05:29.51 bitrate=2142.3kbits/s speed=   1x    frame=16374 fps= 50 q=34.0 size=   86296kB time=00:05:30.02 bitrate=2142.1kbits/s speed=   1x    frame=16400 fps= 50 q=36.0 size=   86411kB time=00:05:30.53 bitrate=2141.6kbits/s speed=   1x    frame=16425 fps= 50 q=35.0 size=   86490kB time=00:05:31.04 bitrate=2140.2kbits/s speed=   1x    frame=16451 fps= 50 q=38.0 size=   86603kB time=00:05:31.55 bitrate=2139.7kbits/s speed=   1x    frame=16476 fps= 50 q=34.0 size=   86717kB time=00:05:32.06 bitrate=2139.3kbits/s speed=   1x    frame=16502 fps= 50 q=35.0 size=   86843kB time=00:05:32.57 bitrate=2139.1kbits/s speed=   1x    frame=16528 fps= 50 q=35.0 size=   86956kB time=00:05:33.09 bitrate=2138.6kbits/s speed=   1x    frame=16553 fps= 50 q=34.0 size=   87084kB time=00:05:33.60 bitrate=2138.5kbits/s speed=   1x    frame=16579 fps= 50 q=35.0 size=   87233kB time=00:05:34.11 bitrate=2138.8kbits/s speed=   1x    frame=16604 fps= 50 q=36.0 size=   87377kB time=00:05:34.62 bitrate=2139.1kbits/s speed=   1x    frame=16629 fps= 50 q=35.0 size=   87525kB time=00:05:35.13 bitrate=2139.5kbits/s speed=   1x    frame=16654 fps= 50 q=35.0 size=   87654kB time=00:05:35.62 bitrate=2139.5kbits/s speed=   1x    frame=16679 fps= 50 q=34.0 size=   87804kB time=00:05:36.13 bitrate=2139.9kbits/s speed=   1x    frame=16705 fps= 50 q=37.0 size=   87938kB time=00:05:36.64 bitrate=2139.9kbits/s speed=   1x    frame=16730 fps= 50 q=38.0 size=   88070kB time=00:05:37.15 bitrate=2139.9kbits/s speed=   1x    frame=16755 fps= 50 q=37.0 size=   88232kB time=00:05:37.64 bitrate=2140.7kbits/s speed=   1x    frame=16781 fps= 50 q=40.0 size=   88402kB time=00:05:38.15 bitrate=2141.6kbits/s speed=   1x    frame=16805 fps= 50 q=38.0 size=   88587kB time=00:05:38.63 bitrate=2143.0kbits/s speed=   1x    frame=16832 fps= 50 q=38.0 size=   88741kB time=00:05:39.17 bitrate=2143.3kbits/s speed=   1x    frame=16856 fps= 50 q=37.0 size=   88911kB time=00:05:39.66 bitrate=2144.4kbits/s speed=   1x    frame=16883 fps= 50 q=39.0 size=   89023kB time=00:05:40.19 bitrate=2143.7kbits/s speed=   1x    frame=16914 fps= 50 q=39.0 size=   89166kB time=00:05:40.68 bitrate=2144.1kbits/s speed=   1x    frame=16931 fps= 50 q=38.0 size=   89236kB time=00:05:41.24 bitrate=2142.2kbits/s speed=   1x    frame=16957 fps= 50 q=36.0 size=   89357kB time=00:05:41.75 bitrate=2141.9kbits/s speed=   1x    frame=16982 fps= 50 q=35.0 size=   89478kB time=00:05:42.26 bitrate=2141.7kbits/s speed=   1x    frame=17008 fps= 50 q=35.0 size=   89553kB time=00:05:42.77 bitrate=2140.2kbits/s speed=   1x    frame=17033 fps= 50 q=36.0 size=   89661kB time=00:05:43.26 bitrate=2139.8kbits/s speed=   1x    frame=17058 fps= 50 q=35.0 size=   89779kB time=00:05:43.77 bitrate=2139.4kbits/s speed=   1x    frame=17084 fps= 50 q=37.0 size=   89901kB time=00:05:44.28 bitrate=2139.1kbits/s speed=   1x    frame=17109 fps= 50 q=36.0 size=   90013kB time=00:05:44.79 bitrate=2138.6kbits/s speed=   1x    frame=17135 fps= 50 q=35.0 size=   90144kB time=00:05:45.30 bitrate=2138.6kbits/s speed=   1x    frame=17160 fps= 50 q=37.0 size=   90290kB time=00:05:45.81 bitrate=2138.9kbits/s speed=   1x    frame=17186 fps= 50 q=36.0 size=   90427kB time=00:05:46.30 bitrate=2139.1kbits/s speed=   1x    frame=17211 fps= 50 q=38.0 size=   90577kB time=00:05:46.83 bitrate=2139.3kbits/s speed=   1x    frame=17236 fps= 50 q=34.0 size=   90717kB time=00:05:47.32 bitrate=2139.6kbits/s speed=   1x    frame=17261 fps= 50 q=34.0 size=   90863kB time=00:05:47.83 bitrate=2139.9kbits/s speed=   1x    frame=17286 fps= 50 q=37.0 size=   90985kB time=00:05:48.32 bitrate=2139.8kbits/s speed=   1x    frame=17311 fps= 50 q=38.0 size=   91123kB time=00:05:48.83 bitrate=2139.9kbits/s speed=   1x    frame=17337 fps= 50 q=39.0 size=   91288kB time=00:05:49.34 bitrate=2140.7kbits/s speed=   1x    frame=17363 fps= 50 q=35.0 size=   91456kB time=00:05:49.85 bitrate=2141.5kbits/s speed=   1x    frame=17386 fps= 50 q=38.0 size=   91630kB time=00:05:50.34 bitrate=2142.6kbits/s speed=   1x    frame=17413 fps= 50 q=39.0 size=   91798kB time=00:05:50.87 bitrate=2143.2kbits/s speed=   1x    frame=17438 fps= 50 q=38.0 size=   91980kB time=00:05:51.36 bitrate=2144.5kbits/s speed=   1x    frame=17463 fps= 50 q=39.0 size=   92085kB time=00:05:51.87 bitrate=2143.8kbits/s speed=   1x    frame=17487 fps= 50 q=37.0 size=   92187kB time=00:05:52.40 bitrate=2143.0kbits/s speed=   1x    frame=17511 fps= 50 q=38.0 size=   92299kB time=00:05:52.89 bitrate=2142.6kbits/s speed=   1x    frame=17536 fps= 50 q=35.0 size=   92414kB time=00:05:53.40 bitrate=2142.2kbits/s speed=   1x    frame=17562 fps= 50 q=35.0 size=   92539kB time=00:05:53.91 bitrate=2142.0kbits/s speed=   1x    frame=17587 fps= 50 q=37.0 size=   92617kB time=00:05:54.42 bitrate=2140.7kbits/s speed=   1x    frame=17612 fps= 50 q=35.0 size=   92726kB time=00:05:54.91 bitrate=2140.3kbits/s speed=   1x    frame=17637 fps= 50 q=37.0 size=   92834kB time=00:05:55.42 bitrate=2139.7kbits/s speed=   1x    frame=17663 fps= 50 q=34.0 size=   92963kB time=00:05:55.93 bitrate=2139.6kbits/s speed=   1x    frame=17688 fps= 50 q=35.0 size=   93076kB time=00:05:56.44 bitrate=2139.1kbits/s speed=   1x    frame=17714 fps= 50 q=35.0 size=   93204kB time=00:05:56.96 bitrate=2139.0kbits/s speed=   1x    frame=17739 fps= 50 q=37.0 size=   93339kB time=00:05:57.47 bitrate=2139.0kbits/s speed=   1x    frame=17764 fps= 50 q=35.0 size=   93484kB time=00:05:57.95 bitrate=2139.4kbits/s speed=   1x    frame=17789 fps= 50 q=35.0 size=   93633kB time=00:05:58.46 bitrate=2139.8kbits/s speed=   1x    frame=17816 fps= 50 q=35.0 size=   93773kB time=00:05:58.98 bitrate=2139.9kbits/s speed=   1x    frame=17840 fps= 50 q=37.0 size=   93907kB time=00:05:59.49 bitrate=2139.9kbits/s speed=   1x    frame=17866 fps= 50 q=37.0 size=   94047kB time=00:06:00.00 bitrate=2140.1kbits/s speed=   1x    frame=17892 fps= 50 q=36.0 size=   94189kB time=00:06:00.48 bitrate=2140.4kbits/s speed=   1x    frame=17916 fps= 50 q=39.0 size=   94343kB time=00:06:01.00 bitrate=2140.9kbits/s speed=   1x    frame=17941 fps= 50 q=37.0 size=   94500kB time=00:06:01.51 bitrate=2141.4kbits/s speed=   1x    frame=17967 fps= 50 q=38.0 size=   94688kB time=00:06:02.02 bitrate=2142.6kbits/s speed=   1x    frame=17993 fps= 50 q=39.0 size=   94849kB time=00:06:02.53 bitrate=2143.3kbits/s speed=   1x    frame=18019 fps= 50 q=39.0 size=   95006kB time=00:06:03.04 bitrate=2143.8kbits/s speed=   1x    frame=18044 fps= 50 q=37.0 size=   95150kB time=00:06:03.55 bitrate=2144.0kbits/s speed=   1x    frame=18069 fps= 50 q=39.0 size=   95247kB time=00:06:04.06 bitrate=2143.2kbits/s speed=   1x    frame=18091 fps= 50 q=37.0 size=   95355kB time=00:06:04.57 bitrate=2142.6kbits/s speed=   1x    frame=18117 fps= 50 q=38.0 size=   95466kB time=00:06:05.08 bitrate=2142.1kbits/s speed=   1x    frame=18142 fps= 50 q=37.0 size=   95597kB time=00:06:05.59 bitrate=2142.1kbits/s speed=   1x    frame=18168 fps= 50 q=37.0 size=   95675kB time=00:06:06.10 bitrate=2140.8kbits/s speed=   1x    frame=18193 fps= 50 q=35.0 size=   95769kB time=00:06:06.61 bitrate=2139.9kbits/s speed=   1x    frame=18219 fps= 50 q=35.0 size=   95886kB time=00:06:07.13 bitrate=2139.5kbits/s speed=   1x    frame=18244 fps= 50 q=37.0 size=   96004kB time=00:06:07.64 bitrate=2139.2kbits/s speed=   1x    frame=18269 fps= 50 q=38.0 size=   96122kB time=00:06:08.12 bitrate=2139.0kbits/s speed=   1x    frame=18294 fps= 50 q=36.0 size=   96241kB time=00:06:08.64 bitrate=2138.7kbits/s speed=   1x    frame=18319 fps= 50 q=35.0 size=   96382kB time=00:06:09.12 bitrate=2139.0kbits/s speed=   1x    frame=18345 fps= 50 q=35.0 size=   96525kB time=00:06:09.63 bitrate=2139.2kbits/s speed=   1x    frame=18370 fps= 50 q=35.0 size=   96680kB time=00:06:10.14 bitrate=2139.7kbits/s speed=   1x    frame=18395 fps= 50 q=37.0 size=   96815kB time=00:06:10.66 bitrate=2139.7kbits/s speed=   1x    frame=18420 fps= 50 q=35.0 size=   96950kB time=00:06:11.14 bitrate=2139.9kbits/s speed=   1x    frame=18445 fps= 50 q=35.0 size=   97089kB time=00:06:11.65 bitrate=2140.0kbits/s speed=   1x    frame=18471 fps= 50 q=33.0 size=   97236kB time=00:06:12.16 bitrate=2140.3kbits/s speed=   1x    frame=18494 fps= 50 q=37.0 size=   97366kB time=00:06:12.63 bitrate=2140.5kbits/s speed=   1x    frame=18515 fps= 50 q=37.0 size=   97494kB time=00:06:13.05 bitrate=2140.9kbits/s speed=   1x    frame=18540 fps= 50 q=38.0 size=   97657kB time=00:06:13.53 bitrate=2141.7kbits/s speed=   1x    frame=18565 fps= 50 q=38.0 size=   97850kB time=00:06:14.05 bitrate=2143.0kbits/s speed=   1x    frame=18595 fps= 50 q=39.0 size=   98027kB time=00:06:14.65 bitrate=2143.4kbits/s speed=   1x    frame=18623 fps= 50 q=39.0 size=   98201kB time=00:06:15.21 bitrate=2144.0kbits/s speed=   1x    frame=18648 fps= 50 q=37.0 size=   98297kB time=00:06:15.69 bitrate=2143.3kbits/s speed=   1x    frame=18669 fps= 50 q=36.0 size=   98403kB time=00:06:16.20 bitrate=2142.7kbits/s speed=   1x    frame=18695 fps= 50 q=38.0 size=   98519kB time=00:06:16.72 bitrate=2142.3kbits/s speed=   1x    frame=18720 fps= 50 q=37.0 size=   98632kB time=00:06:17.20 bitrate=2142.0kbits/s speed=   1x    frame=18745 fps= 50 q=35.0 size=   98736kB time=00:06:17.71 bitrate=2141.4kbits/s speed=   1x    frame=18770 fps= 50 q=35.0 size=   98817kB time=00:06:18.22 bitrate=2140.3kbits/s speed=   1x    frame=18796 fps= 50 q=35.0 size=   98931kB time=00:06:18.74 bitrate=2139.8kbits/s speed=   1x    frame=18821 fps= 50 q=35.0 size=   99051kB time=00:06:19.22 bitrate=2139.7kbits/s speed=   1x    frame=18846 fps= 50 q=35.0 size=   99174kB time=00:06:19.73 bitrate=2139.4kbits/s speed=   1x    frame=18871 fps= 50 q=35.0 size=   99290kB time=00:06:20.24 bitrate=2139.1kbits/s speed=   1x    frame=18897 fps= 50 q=35.0 size=   99432kB time=00:06:20.76 bitrate=2139.3kbits/s speed=   1x    frame=18922 fps= 50 q=37.0 size=   99564kB time=00:06:21.24 bitrate=2139.4kbits/s speed=   1x    frame=18947 fps= 50 q=35.0 size=   99708kB time=00:06:21.75 bitrate=2139.6kbits/s speed=   1x    frame=18972 fps= 50 q=37.0 size=   99855kB time=00:06:22.27 bitrate=2139.9kbits/s speed=   1x    frame=18998 fps= 50 q=35.0 size=   99987kB time=00:06:22.78 bitrate=2139.8kbits/s speed=   1x    frame=19024 fps= 50 q=34.0 size=  100139kB time=00:06:23.29 bitrate=2140.2kbits/s speed=   1x    frame=19048 fps= 50 q=38.0 size=  100269kB time=00:06:23.80 bitrate=2140.2kbits/s speed=   1x    frame=19072 fps= 50 q=36.0 size=  100410kB time=00:06:24.26 bitrate=2140.6kbits/s speed=   1x    frame=19097 fps= 50 q=39.0 size=  100553kB time=00:06:24.73 bitrate=2141.0kbits/s speed=   1x    frame=19123 fps= 50 q=37.0 size=  100738kB time=00:06:25.28 bitrate=2141.9kbits/s speed=   1x    frame=19150 fps= 50 q=38.0 size=  100940kB time=00:06:25.82 bitrate=2143.2kbits/s speed=   1x    frame=19178 fps= 50 q=40.0 size=  101107kB time=00:06:26.38 bitrate=2143.7kbits/s speed=   1x    frame=19203 fps= 50 q=39.0 size=  101264kB time=00:06:26.89 bitrate=2144.1kbits/s speed=   1x    frame=19229 fps= 50 q=39.0 size=  101367kB time=00:06:27.40 bitrate=2143.5kbits/s speed=   1x    frame=19251 fps= 50 q=39.0 size=  101473kB time=00:06:27.91 bitrate=2142.9kbits/s speed=   1x    frame=19276 fps= 50 q=37.0 size=  101579kB time=00:06:28.42 bitrate=2142.3kbits/s speed=   1x    frame=19302 fps= 50 q=35.0 size=  101700kB time=00:06:28.93 bitrate=2142.1kbits/s speed=   1x    frame=19327 fps= 50 q=37.0 size=  101806kB time=00:06:29.42 bitrate=2141.6kbits/s speed=   1x    frame=19352 fps= 50 q=35.0 size=  101888kB time=00:06:29.93 bitrate=2140.5kbits/s speed=   1x    frame=19378 fps= 50 q=35.0 size=  101999kB time=00:06:30.44 bitrate=2140.1kbits/s speed=   1x    frame=19403 fps= 50 q=38.0 size=  102125kB time=00:06:30.95 bitrate=2139.9kbits/s speed=   1x    frame=19429 fps= 50 q=38.0 size=  102244kB time=00:06:31.46 bitrate=2139.6kbits/s speed=   1x    frame=19454 fps= 50 q=35.0 size=  102363kB time=00:06:31.97 bitrate=2139.3kbits/s speed=   1x    frame=19479 fps= 50 q=35.0 size=  102504kB time=00:06:32.46 bitrate=2139.6kbits/s speed=   1x    frame=19504 fps= 50 q=35.0 size=  102639kB time=00:06:32.97 bitrate=2139.6kbits/s speed=   1x    frame=19530 fps= 50 q=36.0 size=  102774kB time=00:06:33.46 bitrate=2139.8kbits/s speed=   1x    frame=19555 fps= 50 q=37.0 size=  102921kB time=00:06:33.99 bitrate=2139.9kbits/s speed=   1x    